<?xml version="1.0" encoding="utf-8" standalone="no"?>
<!DOCTYPE svg PUBLIC "-//W3C//DTD SVG 1.1//EN"
  "http://www.w3.org/Graphics/SVG/1.1/DTD/svg11.dtd">
<svg xmlns:xlink="http://www.w3.org/1999/xlink" width="720pt" height="432pt" viewBox="0 0 720 432" xmlns="http://www.w3.org/2000/svg" version="1.1">
 <metadata>
  <rdf:RDF xmlns:dc="http://purl.org/dc/elements/1.1/" xmlns:cc="http://creativecommons.org/ns#" xmlns:rdf="http://www.w3.org/1999/02/22-rdf-syntax-ns#">
   <cc:Work>
    <dc:type rdf:resource="http://purl.org/dc/dcmitype/StillImage"/>
    <dc:date>2026-04-10T12:51:40.445927</dc:date>
    <dc:format>image/svg+xml</dc:format>
    <dc:creator>
     <cc:Agent>
      <dc:title>Matplotlib v3.10.8, https://matplotlib.org/</dc:title>
     </cc:Agent>
    </dc:creator>
   </cc:Work>
  </rdf:RDF>
 </metadata>
 <defs>
  <style type="text/css">*{stroke-linejoin: round; stroke-linecap: butt}</style>
 </defs>
 <g id="figure_1">
  <g id="patch_1">
   <path d="M 0 432 
L 720 432 
L 720 0 
L 0 0 
z
" style="fill: #ffffff"/>
  </g>
  <g id="axes_1">
   <g id="patch_2">
    <path d="M 44.57 355.48 
L 709.2 355.48 
L 709.2 26.88 
L 44.57 26.88 
z
" style="fill: #ffffff"/>
   </g>
   <g id="matplotlib.axis_1">
    <g id="xtick_1">
     <g id="line2d_1">
      <path d="M 59.675227 355.48 
L 59.675227 26.88 
" clip-path="url(#p958236ed79)" style="fill: none; stroke-dasharray: 2.96,1.28; stroke-dashoffset: 0; stroke: #b0b0b0; stroke-opacity: 0.3; stroke-width: 0.8"/>
     </g>
     <g id="line2d_2">
      <defs>
       <path id="m3cde0ada0b" d="M 0 0 
L 0 3.5 
" style="stroke: #000000; stroke-width: 0.8"/>
      </defs>
      <g>
       <use xlink:href="#m3cde0ada0b" x="59.675227" y="355.48" style="stroke: #000000; stroke-width: 0.8"/>
      </g>
     </g>
     <g id="text_1">
      <!-- 0 -->
      <g transform="translate(56.493977 370.078438) scale(0.1 -0.1)">
       <defs>
        <path id="DejaVuSans-30" d="M 2034 4250 
Q 1547 4250 1301 3770 
Q 1056 3291 1056 2328 
Q 1056 1369 1301 889 
Q 1547 409 2034 409 
Q 2525 409 2770 889 
Q 3016 1369 3016 2328 
Q 3016 3291 2770 3770 
Q 2525 4250 2034 4250 
z
M 2034 4750 
Q 2819 4750 3233 4129 
Q 3647 3509 3647 2328 
Q 3647 1150 3233 529 
Q 2819 -91 2034 -91 
Q 1250 -91 836 529 
Q 422 1150 422 2328 
Q 422 3509 836 4129 
Q 1250 4750 2034 4750 
z
" transform="scale(0.015625)"/>
       </defs>
       <use xlink:href="#DejaVuSans-30"/>
      </g>
     </g>
    </g>
    <g id="xtick_2">
     <g id="line2d_3">
      <path d="M 135.201364 355.48 
L 135.201364 26.88 
" clip-path="url(#p958236ed79)" style="fill: none; stroke-dasharray: 2.96,1.28; stroke-dashoffset: 0; stroke: #b0b0b0; stroke-opacity: 0.3; stroke-width: 0.8"/>
     </g>
     <g id="line2d_4">
      <g>
       <use xlink:href="#m3cde0ada0b" x="135.201364" y="355.48" style="stroke: #000000; stroke-width: 0.8"/>
      </g>
     </g>
     <g id="text_2">
      <!-- 5 -->
      <g transform="translate(132.020114 370.078438) scale(0.1 -0.1)">
       <defs>
        <path id="DejaVuSans-35" d="M 691 4666 
L 3169 4666 
L 3169 4134 
L 1269 4134 
L 1269 2991 
Q 1406 3038 1543 3061 
Q 1681 3084 1819 3084 
Q 2600 3084 3056 2656 
Q 3513 2228 3513 1497 
Q 3513 744 3044 326 
Q 2575 -91 1722 -91 
Q 1428 -91 1123 -41 
Q 819 9 494 109 
L 494 744 
Q 775 591 1075 516 
Q 1375 441 1709 441 
Q 2250 441 2565 725 
Q 2881 1009 2881 1497 
Q 2881 1984 2565 2268 
Q 2250 2553 1709 2553 
Q 1456 2553 1204 2497 
Q 953 2441 691 2322 
L 691 4666 
z
" transform="scale(0.015625)"/>
       </defs>
       <use xlink:href="#DejaVuSans-35"/>
      </g>
     </g>
    </g>
    <g id="xtick_3">
     <g id="line2d_5">
      <path d="M 210.7275 355.48 
L 210.7275 26.88 
" clip-path="url(#p958236ed79)" style="fill: none; stroke-dasharray: 2.96,1.28; stroke-dashoffset: 0; stroke: #b0b0b0; stroke-opacity: 0.3; stroke-width: 0.8"/>
     </g>
     <g id="line2d_6">
      <g>
       <use xlink:href="#m3cde0ada0b" x="210.7275" y="355.48" style="stroke: #000000; stroke-width: 0.8"/>
      </g>
     </g>
     <g id="text_3">
      <!-- 10 -->
      <g transform="translate(204.365 370.078438) scale(0.1 -0.1)">
       <defs>
        <path id="DejaVuSans-31" d="M 794 531 
L 1825 531 
L 1825 4091 
L 703 3866 
L 703 4441 
L 1819 4666 
L 2450 4666 
L 2450 531 
L 3481 531 
L 3481 0 
L 794 0 
L 794 531 
z
" transform="scale(0.015625)"/>
       </defs>
       <use xlink:href="#DejaVuSans-31"/>
       <use xlink:href="#DejaVuSans-30" transform="translate(63.623047 0)"/>
      </g>
     </g>
    </g>
    <g id="xtick_4">
     <g id="line2d_7">
      <path d="M 286.253636 355.48 
L 286.253636 26.88 
" clip-path="url(#p958236ed79)" style="fill: none; stroke-dasharray: 2.96,1.28; stroke-dashoffset: 0; stroke: #b0b0b0; stroke-opacity: 0.3; stroke-width: 0.8"/>
     </g>
     <g id="line2d_8">
      <g>
       <use xlink:href="#m3cde0ada0b" x="286.253636" y="355.48" style="stroke: #000000; stroke-width: 0.8"/>
      </g>
     </g>
     <g id="text_4">
      <!-- 15 -->
      <g transform="translate(279.891136 370.078438) scale(0.1 -0.1)">
       <use xlink:href="#DejaVuSans-31"/>
       <use xlink:href="#DejaVuSans-35" transform="translate(63.623047 0)"/>
      </g>
     </g>
    </g>
    <g id="xtick_5">
     <g id="line2d_9">
      <path d="M 361.779773 355.48 
L 361.779773 26.88 
" clip-path="url(#p958236ed79)" style="fill: none; stroke-dasharray: 2.96,1.28; stroke-dashoffset: 0; stroke: #b0b0b0; stroke-opacity: 0.3; stroke-width: 0.8"/>
     </g>
     <g id="line2d_10">
      <g>
       <use xlink:href="#m3cde0ada0b" x="361.779773" y="355.48" style="stroke: #000000; stroke-width: 0.8"/>
      </g>
     </g>
     <g id="text_5">
      <!-- 20 -->
      <g transform="translate(355.417273 370.078438) scale(0.1 -0.1)">
       <defs>
        <path id="DejaVuSans-32" d="M 1228 531 
L 3431 531 
L 3431 0 
L 469 0 
L 469 531 
Q 828 903 1448 1529 
Q 2069 2156 2228 2338 
Q 2531 2678 2651 2914 
Q 2772 3150 2772 3378 
Q 2772 3750 2511 3984 
Q 2250 4219 1831 4219 
Q 1534 4219 1204 4116 
Q 875 4013 500 3803 
L 500 4441 
Q 881 4594 1212 4672 
Q 1544 4750 1819 4750 
Q 2544 4750 2975 4387 
Q 3406 4025 3406 3419 
Q 3406 3131 3298 2873 
Q 3191 2616 2906 2266 
Q 2828 2175 2409 1742 
Q 1991 1309 1228 531 
z
" transform="scale(0.015625)"/>
       </defs>
       <use xlink:href="#DejaVuSans-32"/>
       <use xlink:href="#DejaVuSans-30" transform="translate(63.623047 0)"/>
      </g>
     </g>
    </g>
    <g id="xtick_6">
     <g id="line2d_11">
      <path d="M 437.305909 355.48 
L 437.305909 26.88 
" clip-path="url(#p958236ed79)" style="fill: none; stroke-dasharray: 2.96,1.28; stroke-dashoffset: 0; stroke: #b0b0b0; stroke-opacity: 0.3; stroke-width: 0.8"/>
     </g>
     <g id="line2d_12">
      <g>
       <use xlink:href="#m3cde0ada0b" x="437.305909" y="355.48" style="stroke: #000000; stroke-width: 0.8"/>
      </g>
     </g>
     <g id="text_6">
      <!-- 25 -->
      <g transform="translate(430.943409 370.078438) scale(0.1 -0.1)">
       <use xlink:href="#DejaVuSans-32"/>
       <use xlink:href="#DejaVuSans-35" transform="translate(63.623047 0)"/>
      </g>
     </g>
    </g>
    <g id="xtick_7">
     <g id="line2d_13">
      <path d="M 512.832045 355.48 
L 512.832045 26.88 
" clip-path="url(#p958236ed79)" style="fill: none; stroke-dasharray: 2.96,1.28; stroke-dashoffset: 0; stroke: #b0b0b0; stroke-opacity: 0.3; stroke-width: 0.8"/>
     </g>
     <g id="line2d_14">
      <g>
       <use xlink:href="#m3cde0ada0b" x="512.832045" y="355.48" style="stroke: #000000; stroke-width: 0.8"/>
      </g>
     </g>
     <g id="text_7">
      <!-- 30 -->
      <g transform="translate(506.469545 370.078438) scale(0.1 -0.1)">
       <defs>
        <path id="DejaVuSans-33" d="M 2597 2516 
Q 3050 2419 3304 2112 
Q 3559 1806 3559 1356 
Q 3559 666 3084 287 
Q 2609 -91 1734 -91 
Q 1441 -91 1130 -33 
Q 819 25 488 141 
L 488 750 
Q 750 597 1062 519 
Q 1375 441 1716 441 
Q 2309 441 2620 675 
Q 2931 909 2931 1356 
Q 2931 1769 2642 2001 
Q 2353 2234 1838 2234 
L 1294 2234 
L 1294 2753 
L 1863 2753 
Q 2328 2753 2575 2939 
Q 2822 3125 2822 3475 
Q 2822 3834 2567 4026 
Q 2313 4219 1838 4219 
Q 1578 4219 1281 4162 
Q 984 4106 628 3988 
L 628 4550 
Q 988 4650 1302 4700 
Q 1616 4750 1894 4750 
Q 2613 4750 3031 4423 
Q 3450 4097 3450 3541 
Q 3450 3153 3228 2886 
Q 3006 2619 2597 2516 
z
" transform="scale(0.015625)"/>
       </defs>
       <use xlink:href="#DejaVuSans-33"/>
       <use xlink:href="#DejaVuSans-30" transform="translate(63.623047 0)"/>
      </g>
     </g>
    </g>
    <g id="xtick_8">
     <g id="line2d_15">
      <path d="M 588.358182 355.48 
L 588.358182 26.88 
" clip-path="url(#p958236ed79)" style="fill: none; stroke-dasharray: 2.96,1.28; stroke-dashoffset: 0; stroke: #b0b0b0; stroke-opacity: 0.3; stroke-width: 0.8"/>
     </g>
     <g id="line2d_16">
      <g>
       <use xlink:href="#m3cde0ada0b" x="588.358182" y="355.48" style="stroke: #000000; stroke-width: 0.8"/>
      </g>
     </g>
     <g id="text_8">
      <!-- 35 -->
      <g transform="translate(581.995682 370.078438) scale(0.1 -0.1)">
       <use xlink:href="#DejaVuSans-33"/>
       <use xlink:href="#DejaVuSans-35" transform="translate(63.623047 0)"/>
      </g>
     </g>
    </g>
    <g id="xtick_9">
     <g id="line2d_17">
      <path d="M 663.884318 355.48 
L 663.884318 26.88 
" clip-path="url(#p958236ed79)" style="fill: none; stroke-dasharray: 2.96,1.28; stroke-dashoffset: 0; stroke: #b0b0b0; stroke-opacity: 0.3; stroke-width: 0.8"/>
     </g>
     <g id="line2d_18">
      <g>
       <use xlink:href="#m3cde0ada0b" x="663.884318" y="355.48" style="stroke: #000000; stroke-width: 0.8"/>
      </g>
     </g>
     <g id="text_9">
      <!-- 40 -->
      <g transform="translate(657.521818 370.078438) scale(0.1 -0.1)">
       <defs>
        <path id="DejaVuSans-34" d="M 2419 4116 
L 825 1625 
L 2419 1625 
L 2419 4116 
z
M 2253 4666 
L 3047 4666 
L 3047 1625 
L 3713 1625 
L 3713 1100 
L 3047 1100 
L 3047 0 
L 2419 0 
L 2419 1100 
L 313 1100 
L 313 1709 
L 2253 4666 
z
" transform="scale(0.015625)"/>
       </defs>
       <use xlink:href="#DejaVuSans-34"/>
       <use xlink:href="#DejaVuSans-30" transform="translate(63.623047 0)"/>
      </g>
     </g>
    </g>
    <g id="text_10">
     <!-- Epoch -->
     <g transform="translate(361.574062 383.756562) scale(0.1 -0.1)">
      <defs>
       <path id="DejaVuSans-45" d="M 628 4666 
L 3578 4666 
L 3578 4134 
L 1259 4134 
L 1259 2753 
L 3481 2753 
L 3481 2222 
L 1259 2222 
L 1259 531 
L 3634 531 
L 3634 0 
L 628 0 
L 628 4666 
z
" transform="scale(0.015625)"/>
       <path id="DejaVuSans-70" d="M 1159 525 
L 1159 -1331 
L 581 -1331 
L 581 3500 
L 1159 3500 
L 1159 2969 
Q 1341 3281 1617 3432 
Q 1894 3584 2278 3584 
Q 2916 3584 3314 3078 
Q 3713 2572 3713 1747 
Q 3713 922 3314 415 
Q 2916 -91 2278 -91 
Q 1894 -91 1617 61 
Q 1341 213 1159 525 
z
M 3116 1747 
Q 3116 2381 2855 2742 
Q 2594 3103 2138 3103 
Q 1681 3103 1420 2742 
Q 1159 2381 1159 1747 
Q 1159 1113 1420 752 
Q 1681 391 2138 391 
Q 2594 391 2855 752 
Q 3116 1113 3116 1747 
z
" transform="scale(0.015625)"/>
       <path id="DejaVuSans-6f" d="M 1959 3097 
Q 1497 3097 1228 2736 
Q 959 2375 959 1747 
Q 959 1119 1226 758 
Q 1494 397 1959 397 
Q 2419 397 2687 759 
Q 2956 1122 2956 1747 
Q 2956 2369 2687 2733 
Q 2419 3097 1959 3097 
z
M 1959 3584 
Q 2709 3584 3137 3096 
Q 3566 2609 3566 1747 
Q 3566 888 3137 398 
Q 2709 -91 1959 -91 
Q 1206 -91 779 398 
Q 353 888 353 1747 
Q 353 2609 779 3096 
Q 1206 3584 1959 3584 
z
" transform="scale(0.015625)"/>
       <path id="DejaVuSans-63" d="M 3122 3366 
L 3122 2828 
Q 2878 2963 2633 3030 
Q 2388 3097 2138 3097 
Q 1578 3097 1268 2742 
Q 959 2388 959 1747 
Q 959 1106 1268 751 
Q 1578 397 2138 397 
Q 2388 397 2633 464 
Q 2878 531 3122 666 
L 3122 134 
Q 2881 22 2623 -34 
Q 2366 -91 2075 -91 
Q 1284 -91 818 406 
Q 353 903 353 1747 
Q 353 2603 823 3093 
Q 1294 3584 2113 3584 
Q 2378 3584 2631 3529 
Q 2884 3475 3122 3366 
z
" transform="scale(0.015625)"/>
       <path id="DejaVuSans-68" d="M 3513 2113 
L 3513 0 
L 2938 0 
L 2938 2094 
Q 2938 2591 2744 2837 
Q 2550 3084 2163 3084 
Q 1697 3084 1428 2787 
Q 1159 2491 1159 1978 
L 1159 0 
L 581 0 
L 581 4863 
L 1159 4863 
L 1159 2956 
Q 1366 3272 1645 3428 
Q 1925 3584 2291 3584 
Q 2894 3584 3203 3211 
Q 3513 2838 3513 2113 
z
" transform="scale(0.015625)"/>
      </defs>
      <use xlink:href="#DejaVuSans-45"/>
      <use xlink:href="#DejaVuSans-70" transform="translate(63.183594 0)"/>
      <use xlink:href="#DejaVuSans-6f" transform="translate(126.660156 0)"/>
      <use xlink:href="#DejaVuSans-63" transform="translate(187.841797 0)"/>
      <use xlink:href="#DejaVuSans-68" transform="translate(242.822266 0)"/>
     </g>
    </g>
   </g>
   <g id="matplotlib.axis_2">
    <g id="ytick_1">
     <g id="line2d_19">
      <path d="M 44.57 328.619449 
L 709.2 328.619449 
" clip-path="url(#p958236ed79)" style="fill: none; stroke-dasharray: 2.96,1.28; stroke-dashoffset: 0; stroke: #b0b0b0; stroke-opacity: 0.3; stroke-width: 0.8"/>
     </g>
     <g id="line2d_20">
      <defs>
       <path id="m6836024cce" d="M 0 0 
L -3.5 0 
" style="stroke: #000000; stroke-width: 0.8"/>
      </defs>
      <g>
       <use xlink:href="#m6836024cce" x="44.57" y="328.619449" style="stroke: #000000; stroke-width: 0.8"/>
      </g>
     </g>
     <g id="text_11">
      <!-- 60 -->
      <g transform="translate(24.845 332.418668) scale(0.1 -0.1)">
       <defs>
        <path id="DejaVuSans-36" d="M 2113 2584 
Q 1688 2584 1439 2293 
Q 1191 2003 1191 1497 
Q 1191 994 1439 701 
Q 1688 409 2113 409 
Q 2538 409 2786 701 
Q 3034 994 3034 1497 
Q 3034 2003 2786 2293 
Q 2538 2584 2113 2584 
z
M 3366 4563 
L 3366 3988 
Q 3128 4100 2886 4159 
Q 2644 4219 2406 4219 
Q 1781 4219 1451 3797 
Q 1122 3375 1075 2522 
Q 1259 2794 1537 2939 
Q 1816 3084 2150 3084 
Q 2853 3084 3261 2657 
Q 3669 2231 3669 1497 
Q 3669 778 3244 343 
Q 2819 -91 2113 -91 
Q 1303 -91 875 529 
Q 447 1150 447 2328 
Q 447 3434 972 4092 
Q 1497 4750 2381 4750 
Q 2619 4750 2861 4703 
Q 3103 4656 3366 4563 
z
" transform="scale(0.015625)"/>
       </defs>
       <use xlink:href="#DejaVuSans-36"/>
       <use xlink:href="#DejaVuSans-30" transform="translate(63.623047 0)"/>
      </g>
     </g>
    </g>
    <g id="ytick_2">
     <g id="line2d_21">
      <path d="M 44.57 286.618856 
L 709.2 286.618856 
" clip-path="url(#p958236ed79)" style="fill: none; stroke-dasharray: 2.96,1.28; stroke-dashoffset: 0; stroke: #b0b0b0; stroke-opacity: 0.3; stroke-width: 0.8"/>
     </g>
     <g id="line2d_22">
      <g>
       <use xlink:href="#m6836024cce" x="44.57" y="286.618856" style="stroke: #000000; stroke-width: 0.8"/>
      </g>
     </g>
     <g id="text_12">
      <!-- 65 -->
      <g transform="translate(24.845 290.418075) scale(0.1 -0.1)">
       <use xlink:href="#DejaVuSans-36"/>
       <use xlink:href="#DejaVuSans-35" transform="translate(63.623047 0)"/>
      </g>
     </g>
    </g>
    <g id="ytick_3">
     <g id="line2d_23">
      <path d="M 44.57 244.618263 
L 709.2 244.618263 
" clip-path="url(#p958236ed79)" style="fill: none; stroke-dasharray: 2.96,1.28; stroke-dashoffset: 0; stroke: #b0b0b0; stroke-opacity: 0.3; stroke-width: 0.8"/>
     </g>
     <g id="line2d_24">
      <g>
       <use xlink:href="#m6836024cce" x="44.57" y="244.618263" style="stroke: #000000; stroke-width: 0.8"/>
      </g>
     </g>
     <g id="text_13">
      <!-- 70 -->
      <g transform="translate(24.845 248.417482) scale(0.1 -0.1)">
       <defs>
        <path id="DejaVuSans-37" d="M 525 4666 
L 3525 4666 
L 3525 4397 
L 1831 0 
L 1172 0 
L 2766 4134 
L 525 4134 
L 525 4666 
z
" transform="scale(0.015625)"/>
       </defs>
       <use xlink:href="#DejaVuSans-37"/>
       <use xlink:href="#DejaVuSans-30" transform="translate(63.623047 0)"/>
      </g>
     </g>
    </g>
    <g id="ytick_4">
     <g id="line2d_25">
      <path d="M 44.57 202.61767 
L 709.2 202.61767 
" clip-path="url(#p958236ed79)" style="fill: none; stroke-dasharray: 2.96,1.28; stroke-dashoffset: 0; stroke: #b0b0b0; stroke-opacity: 0.3; stroke-width: 0.8"/>
     </g>
     <g id="line2d_26">
      <g>
       <use xlink:href="#m6836024cce" x="44.57" y="202.61767" style="stroke: #000000; stroke-width: 0.8"/>
      </g>
     </g>
     <g id="text_14">
      <!-- 75 -->
      <g transform="translate(24.845 206.416888) scale(0.1 -0.1)">
       <use xlink:href="#DejaVuSans-37"/>
       <use xlink:href="#DejaVuSans-35" transform="translate(63.623047 0)"/>
      </g>
     </g>
    </g>
    <g id="ytick_5">
     <g id="line2d_27">
      <path d="M 44.57 160.617076 
L 709.2 160.617076 
" clip-path="url(#p958236ed79)" style="fill: none; stroke-dasharray: 2.96,1.28; stroke-dashoffset: 0; stroke: #b0b0b0; stroke-opacity: 0.3; stroke-width: 0.8"/>
     </g>
     <g id="line2d_28">
      <g>
       <use xlink:href="#m6836024cce" x="44.57" y="160.617076" style="stroke: #000000; stroke-width: 0.8"/>
      </g>
     </g>
     <g id="text_15">
      <!-- 80 -->
      <g transform="translate(24.845 164.416295) scale(0.1 -0.1)">
       <defs>
        <path id="DejaVuSans-38" d="M 2034 2216 
Q 1584 2216 1326 1975 
Q 1069 1734 1069 1313 
Q 1069 891 1326 650 
Q 1584 409 2034 409 
Q 2484 409 2743 651 
Q 3003 894 3003 1313 
Q 3003 1734 2745 1975 
Q 2488 2216 2034 2216 
z
M 1403 2484 
Q 997 2584 770 2862 
Q 544 3141 544 3541 
Q 544 4100 942 4425 
Q 1341 4750 2034 4750 
Q 2731 4750 3128 4425 
Q 3525 4100 3525 3541 
Q 3525 3141 3298 2862 
Q 3072 2584 2669 2484 
Q 3125 2378 3379 2068 
Q 3634 1759 3634 1313 
Q 3634 634 3220 271 
Q 2806 -91 2034 -91 
Q 1263 -91 848 271 
Q 434 634 434 1313 
Q 434 1759 690 2068 
Q 947 2378 1403 2484 
z
M 1172 3481 
Q 1172 3119 1398 2916 
Q 1625 2713 2034 2713 
Q 2441 2713 2670 2916 
Q 2900 3119 2900 3481 
Q 2900 3844 2670 4047 
Q 2441 4250 2034 4250 
Q 1625 4250 1398 4047 
Q 1172 3844 1172 3481 
z
" transform="scale(0.015625)"/>
       </defs>
       <use xlink:href="#DejaVuSans-38"/>
       <use xlink:href="#DejaVuSans-30" transform="translate(63.623047 0)"/>
      </g>
     </g>
    </g>
    <g id="ytick_6">
     <g id="line2d_29">
      <path d="M 44.57 118.616483 
L 709.2 118.616483 
" clip-path="url(#p958236ed79)" style="fill: none; stroke-dasharray: 2.96,1.28; stroke-dashoffset: 0; stroke: #b0b0b0; stroke-opacity: 0.3; stroke-width: 0.8"/>
     </g>
     <g id="line2d_30">
      <g>
       <use xlink:href="#m6836024cce" x="44.57" y="118.616483" style="stroke: #000000; stroke-width: 0.8"/>
      </g>
     </g>
     <g id="text_16">
      <!-- 85 -->
      <g transform="translate(24.845 122.415702) scale(0.1 -0.1)">
       <use xlink:href="#DejaVuSans-38"/>
       <use xlink:href="#DejaVuSans-35" transform="translate(63.623047 0)"/>
      </g>
     </g>
    </g>
    <g id="ytick_7">
     <g id="line2d_31">
      <path d="M 44.57 76.61589 
L 709.2 76.61589 
" clip-path="url(#p958236ed79)" style="fill: none; stroke-dasharray: 2.96,1.28; stroke-dashoffset: 0; stroke: #b0b0b0; stroke-opacity: 0.3; stroke-width: 0.8"/>
     </g>
     <g id="line2d_32">
      <g>
       <use xlink:href="#m6836024cce" x="44.57" y="76.61589" style="stroke: #000000; stroke-width: 0.8"/>
      </g>
     </g>
     <g id="text_17">
      <!-- 90 -->
      <g transform="translate(24.845 80.415109) scale(0.1 -0.1)">
       <defs>
        <path id="DejaVuSans-39" d="M 703 97 
L 703 672 
Q 941 559 1184 500 
Q 1428 441 1663 441 
Q 2288 441 2617 861 
Q 2947 1281 2994 2138 
Q 2813 1869 2534 1725 
Q 2256 1581 1919 1581 
Q 1219 1581 811 2004 
Q 403 2428 403 3163 
Q 403 3881 828 4315 
Q 1253 4750 1959 4750 
Q 2769 4750 3195 4129 
Q 3622 3509 3622 2328 
Q 3622 1225 3098 567 
Q 2575 -91 1691 -91 
Q 1453 -91 1209 -44 
Q 966 3 703 97 
z
M 1959 2075 
Q 2384 2075 2632 2365 
Q 2881 2656 2881 3163 
Q 2881 3666 2632 3958 
Q 2384 4250 1959 4250 
Q 1534 4250 1286 3958 
Q 1038 3666 1038 3163 
Q 1038 2656 1286 2365 
Q 1534 2075 1959 2075 
z
" transform="scale(0.015625)"/>
       </defs>
       <use xlink:href="#DejaVuSans-39"/>
       <use xlink:href="#DejaVuSans-30" transform="translate(63.623047 0)"/>
      </g>
     </g>
    </g>
    <g id="ytick_8">
     <g id="line2d_33">
      <path d="M 44.57 34.615297 
L 709.2 34.615297 
" clip-path="url(#p958236ed79)" style="fill: none; stroke-dasharray: 2.96,1.28; stroke-dashoffset: 0; stroke: #b0b0b0; stroke-opacity: 0.3; stroke-width: 0.8"/>
     </g>
     <g id="line2d_34">
      <g>
       <use xlink:href="#m6836024cce" x="44.57" y="34.615297" style="stroke: #000000; stroke-width: 0.8"/>
      </g>
     </g>
     <g id="text_18">
      <!-- 95 -->
      <g transform="translate(24.845 38.414516) scale(0.1 -0.1)">
       <use xlink:href="#DejaVuSans-39"/>
       <use xlink:href="#DejaVuSans-35" transform="translate(63.623047 0)"/>
      </g>
     </g>
    </g>
    <g id="text_19">
     <!-- Accuracy / mIoU [%] -->
     <g transform="translate(18.765312 242.176094) rotate(-90) scale(0.1 -0.1)">
      <defs>
       <path id="DejaVuSans-41" d="M 2188 4044 
L 1331 1722 
L 3047 1722 
L 2188 4044 
z
M 1831 4666 
L 2547 4666 
L 4325 0 
L 3669 0 
L 3244 1197 
L 1141 1197 
L 716 0 
L 50 0 
L 1831 4666 
z
" transform="scale(0.015625)"/>
       <path id="DejaVuSans-75" d="M 544 1381 
L 544 3500 
L 1119 3500 
L 1119 1403 
Q 1119 906 1312 657 
Q 1506 409 1894 409 
Q 2359 409 2629 706 
Q 2900 1003 2900 1516 
L 2900 3500 
L 3475 3500 
L 3475 0 
L 2900 0 
L 2900 538 
Q 2691 219 2414 64 
Q 2138 -91 1772 -91 
Q 1169 -91 856 284 
Q 544 659 544 1381 
z
M 1991 3584 
L 1991 3584 
z
" transform="scale(0.015625)"/>
       <path id="DejaVuSans-72" d="M 2631 2963 
Q 2534 3019 2420 3045 
Q 2306 3072 2169 3072 
Q 1681 3072 1420 2755 
Q 1159 2438 1159 1844 
L 1159 0 
L 581 0 
L 581 3500 
L 1159 3500 
L 1159 2956 
Q 1341 3275 1631 3429 
Q 1922 3584 2338 3584 
Q 2397 3584 2469 3576 
Q 2541 3569 2628 3553 
L 2631 2963 
z
" transform="scale(0.015625)"/>
       <path id="DejaVuSans-61" d="M 2194 1759 
Q 1497 1759 1228 1600 
Q 959 1441 959 1056 
Q 959 750 1161 570 
Q 1363 391 1709 391 
Q 2188 391 2477 730 
Q 2766 1069 2766 1631 
L 2766 1759 
L 2194 1759 
z
M 3341 1997 
L 3341 0 
L 2766 0 
L 2766 531 
Q 2569 213 2275 61 
Q 1981 -91 1556 -91 
Q 1019 -91 701 211 
Q 384 513 384 1019 
Q 384 1609 779 1909 
Q 1175 2209 1959 2209 
L 2766 2209 
L 2766 2266 
Q 2766 2663 2505 2880 
Q 2244 3097 1772 3097 
Q 1472 3097 1187 3025 
Q 903 2953 641 2809 
L 641 3341 
Q 956 3463 1253 3523 
Q 1550 3584 1831 3584 
Q 2591 3584 2966 3190 
Q 3341 2797 3341 1997 
z
" transform="scale(0.015625)"/>
       <path id="DejaVuSans-79" d="M 2059 -325 
Q 1816 -950 1584 -1140 
Q 1353 -1331 966 -1331 
L 506 -1331 
L 506 -850 
L 844 -850 
Q 1081 -850 1212 -737 
Q 1344 -625 1503 -206 
L 1606 56 
L 191 3500 
L 800 3500 
L 1894 763 
L 2988 3500 
L 3597 3500 
L 2059 -325 
z
" transform="scale(0.015625)"/>
       <path id="DejaVuSans-20" transform="scale(0.015625)"/>
       <path id="DejaVuSans-2f" d="M 1625 4666 
L 2156 4666 
L 531 -594 
L 0 -594 
L 1625 4666 
z
" transform="scale(0.015625)"/>
       <path id="DejaVuSans-6d" d="M 3328 2828 
Q 3544 3216 3844 3400 
Q 4144 3584 4550 3584 
Q 5097 3584 5394 3201 
Q 5691 2819 5691 2113 
L 5691 0 
L 5113 0 
L 5113 2094 
Q 5113 2597 4934 2840 
Q 4756 3084 4391 3084 
Q 3944 3084 3684 2787 
Q 3425 2491 3425 1978 
L 3425 0 
L 2847 0 
L 2847 2094 
Q 2847 2600 2669 2842 
Q 2491 3084 2119 3084 
Q 1678 3084 1418 2786 
Q 1159 2488 1159 1978 
L 1159 0 
L 581 0 
L 581 3500 
L 1159 3500 
L 1159 2956 
Q 1356 3278 1631 3431 
Q 1906 3584 2284 3584 
Q 2666 3584 2933 3390 
Q 3200 3197 3328 2828 
z
" transform="scale(0.015625)"/>
       <path id="DejaVuSans-49" d="M 628 4666 
L 1259 4666 
L 1259 0 
L 628 0 
L 628 4666 
z
" transform="scale(0.015625)"/>
       <path id="DejaVuSans-55" d="M 556 4666 
L 1191 4666 
L 1191 1831 
Q 1191 1081 1462 751 
Q 1734 422 2344 422 
Q 2950 422 3222 751 
Q 3494 1081 3494 1831 
L 3494 4666 
L 4128 4666 
L 4128 1753 
Q 4128 841 3676 375 
Q 3225 -91 2344 -91 
Q 1459 -91 1007 375 
Q 556 841 556 1753 
L 556 4666 
z
" transform="scale(0.015625)"/>
       <path id="DejaVuSans-5b" d="M 550 4863 
L 1875 4863 
L 1875 4416 
L 1125 4416 
L 1125 -397 
L 1875 -397 
L 1875 -844 
L 550 -844 
L 550 4863 
z
" transform="scale(0.015625)"/>
       <path id="DejaVuSans-25" d="M 4653 2053 
Q 4381 2053 4226 1822 
Q 4072 1591 4072 1178 
Q 4072 772 4226 539 
Q 4381 306 4653 306 
Q 4919 306 5073 539 
Q 5228 772 5228 1178 
Q 5228 1588 5073 1820 
Q 4919 2053 4653 2053 
z
M 4653 2450 
Q 5147 2450 5437 2106 
Q 5728 1763 5728 1178 
Q 5728 594 5436 251 
Q 5144 -91 4653 -91 
Q 4153 -91 3862 251 
Q 3572 594 3572 1178 
Q 3572 1766 3864 2108 
Q 4156 2450 4653 2450 
z
M 1428 4353 
Q 1159 4353 1004 4120 
Q 850 3888 850 3481 
Q 850 3069 1003 2837 
Q 1156 2606 1428 2606 
Q 1700 2606 1854 2837 
Q 2009 3069 2009 3481 
Q 2009 3884 1853 4118 
Q 1697 4353 1428 4353 
z
M 4250 4750 
L 4750 4750 
L 1831 -91 
L 1331 -91 
L 4250 4750 
z
M 1428 4750 
Q 1922 4750 2215 4408 
Q 2509 4066 2509 3481 
Q 2509 2891 2217 2550 
Q 1925 2209 1428 2209 
Q 931 2209 642 2551 
Q 353 2894 353 3481 
Q 353 4063 643 4406 
Q 934 4750 1428 4750 
z
" transform="scale(0.015625)"/>
       <path id="DejaVuSans-5d" d="M 1947 4863 
L 1947 -844 
L 622 -844 
L 622 -397 
L 1369 -397 
L 1369 4416 
L 622 4416 
L 622 4863 
L 1947 4863 
z
" transform="scale(0.015625)"/>
      </defs>
      <use xlink:href="#DejaVuSans-41"/>
      <use xlink:href="#DejaVuSans-63" transform="translate(66.658203 0)"/>
      <use xlink:href="#DejaVuSans-63" transform="translate(121.638672 0)"/>
      <use xlink:href="#DejaVuSans-75" transform="translate(176.619141 0)"/>
      <use xlink:href="#DejaVuSans-72" transform="translate(239.998047 0)"/>
      <use xlink:href="#DejaVuSans-61" transform="translate(281.111328 0)"/>
      <use xlink:href="#DejaVuSans-63" transform="translate(342.390625 0)"/>
      <use xlink:href="#DejaVuSans-79" transform="translate(397.371094 0)"/>
      <use xlink:href="#DejaVuSans-20" transform="translate(456.550781 0)"/>
      <use xlink:href="#DejaVuSans-2f" transform="translate(488.337891 0)"/>
      <use xlink:href="#DejaVuSans-20" transform="translate(522.029297 0)"/>
      <use xlink:href="#DejaVuSans-6d" transform="translate(553.816406 0)"/>
      <use xlink:href="#DejaVuSans-49" transform="translate(651.228516 0)"/>
      <use xlink:href="#DejaVuSans-6f" transform="translate(680.720703 0)"/>
      <use xlink:href="#DejaVuSans-55" transform="translate(741.902344 0)"/>
      <use xlink:href="#DejaVuSans-20" transform="translate(815.095703 0)"/>
      <use xlink:href="#DejaVuSans-5b" transform="translate(846.882812 0)"/>
      <use xlink:href="#DejaVuSans-25" transform="translate(885.896484 0)"/>
      <use xlink:href="#DejaVuSans-5d" transform="translate(980.916016 0)"/>
     </g>
    </g>
   </g>
   <g id="line2d_35">
    <path d="M 74.780455 220.565509 
L 89.885682 124.397889 
L 104.990909 95.832643 
L 120.096136 85.576373 
L 135.201364 77.138525 
L 150.306591 74.747765 
L 165.411818 68.809951 
L 180.517045 64.690524 
L 195.622273 63.405726 
L 210.7275 61.098746 
L 225.832727 56.961221 
L 240.937955 58.005912 
L 256.043182 59.218709 
L 271.148409 55.043027 
L 286.253636 52.529767 
L 301.358864 52.229534 
L 316.464091 52.225935 
L 331.569318 52.565556 
L 346.674545 49.342986 
L 361.779773 51.345538 
L 376.885 51.661175 
L 391.990227 50.126764 
L 407.095455 48.571443 
L 422.200682 46.549112 
L 437.305909 49.637115 
L 452.411136 49.212791 
L 467.516364 48.093201 
L 482.621591 47.583021 
L 497.726818 47.193045 
L 512.832045 46.302351 
L 527.937273 44.953921 
L 543.0425 44.262665 
L 558.147727 51.926165 
L 573.252955 45.515894 
L 588.358182 48.039836 
L 603.463409 44.997586 
L 618.568636 44.955945 
L 633.673864 48.604708 
L 648.779091 44.3381 
L 663.884318 43.680237 
L 678.989545 46.264513 
" clip-path="url(#p958236ed79)" style="fill: none; stroke-dasharray: 1.5,2.475; stroke-dashoffset: 0; stroke: #ff80ff; stroke-width: 1.5"/>
    <defs>
     <path id="m857e76a41c" d="M 0 3 
C 0.795609 3 1.55874 2.683901 2.12132 2.12132 
C 2.683901 1.55874 3 0.795609 3 0 
C 3 -0.795609 2.683901 -1.55874 2.12132 -2.12132 
C 1.55874 -2.683901 0.795609 -3 0 -3 
C -0.795609 -3 -1.55874 -2.683901 -2.12132 -2.12132 
C -2.683901 -1.55874 -3 -0.795609 -3 0 
C -3 0.795609 -2.683901 1.55874 -2.12132 2.12132 
C -1.55874 2.683901 -0.795609 3 0 3 
z
" style="stroke: #ff80ff"/>
    </defs>
    <g clip-path="url(#p958236ed79)">
     <use xlink:href="#m857e76a41c" x="74.780455" y="220.565509" style="fill: #ff80ff; stroke: #ff80ff"/>
     <use xlink:href="#m857e76a41c" x="89.885682" y="124.397889" style="fill: #ff80ff; stroke: #ff80ff"/>
     <use xlink:href="#m857e76a41c" x="104.990909" y="95.832643" style="fill: #ff80ff; stroke: #ff80ff"/>
     <use xlink:href="#m857e76a41c" x="120.096136" y="85.576373" style="fill: #ff80ff; stroke: #ff80ff"/>
     <use xlink:href="#m857e76a41c" x="135.201364" y="77.138525" style="fill: #ff80ff; stroke: #ff80ff"/>
     <use xlink:href="#m857e76a41c" x="150.306591" y="74.747765" style="fill: #ff80ff; stroke: #ff80ff"/>
     <use xlink:href="#m857e76a41c" x="165.411818" y="68.809951" style="fill: #ff80ff; stroke: #ff80ff"/>
     <use xlink:href="#m857e76a41c" x="180.517045" y="64.690524" style="fill: #ff80ff; stroke: #ff80ff"/>
     <use xlink:href="#m857e76a41c" x="195.622273" y="63.405726" style="fill: #ff80ff; stroke: #ff80ff"/>
     <use xlink:href="#m857e76a41c" x="210.7275" y="61.098746" style="fill: #ff80ff; stroke: #ff80ff"/>
     <use xlink:href="#m857e76a41c" x="225.832727" y="56.961221" style="fill: #ff80ff; stroke: #ff80ff"/>
     <use xlink:href="#m857e76a41c" x="240.937955" y="58.005912" style="fill: #ff80ff; stroke: #ff80ff"/>
     <use xlink:href="#m857e76a41c" x="256.043182" y="59.218709" style="fill: #ff80ff; stroke: #ff80ff"/>
     <use xlink:href="#m857e76a41c" x="271.148409" y="55.043027" style="fill: #ff80ff; stroke: #ff80ff"/>
     <use xlink:href="#m857e76a41c" x="286.253636" y="52.529767" style="fill: #ff80ff; stroke: #ff80ff"/>
     <use xlink:href="#m857e76a41c" x="301.358864" y="52.229534" style="fill: #ff80ff; stroke: #ff80ff"/>
     <use xlink:href="#m857e76a41c" x="316.464091" y="52.225935" style="fill: #ff80ff; stroke: #ff80ff"/>
     <use xlink:href="#m857e76a41c" x="331.569318" y="52.565556" style="fill: #ff80ff; stroke: #ff80ff"/>
     <use xlink:href="#m857e76a41c" x="346.674545" y="49.342986" style="fill: #ff80ff; stroke: #ff80ff"/>
     <use xlink:href="#m857e76a41c" x="361.779773" y="51.345538" style="fill: #ff80ff; stroke: #ff80ff"/>
     <use xlink:href="#m857e76a41c" x="376.885" y="51.661175" style="fill: #ff80ff; stroke: #ff80ff"/>
     <use xlink:href="#m857e76a41c" x="391.990227" y="50.126764" style="fill: #ff80ff; stroke: #ff80ff"/>
     <use xlink:href="#m857e76a41c" x="407.095455" y="48.571443" style="fill: #ff80ff; stroke: #ff80ff"/>
     <use xlink:href="#m857e76a41c" x="422.200682" y="46.549112" style="fill: #ff80ff; stroke: #ff80ff"/>
     <use xlink:href="#m857e76a41c" x="437.305909" y="49.637115" style="fill: #ff80ff; stroke: #ff80ff"/>
     <use xlink:href="#m857e76a41c" x="452.411136" y="49.212791" style="fill: #ff80ff; stroke: #ff80ff"/>
     <use xlink:href="#m857e76a41c" x="467.516364" y="48.093201" style="fill: #ff80ff; stroke: #ff80ff"/>
     <use xlink:href="#m857e76a41c" x="482.621591" y="47.583021" style="fill: #ff80ff; stroke: #ff80ff"/>
     <use xlink:href="#m857e76a41c" x="497.726818" y="47.193045" style="fill: #ff80ff; stroke: #ff80ff"/>
     <use xlink:href="#m857e76a41c" x="512.832045" y="46.302351" style="fill: #ff80ff; stroke: #ff80ff"/>
     <use xlink:href="#m857e76a41c" x="527.937273" y="44.953921" style="fill: #ff80ff; stroke: #ff80ff"/>
     <use xlink:href="#m857e76a41c" x="543.0425" y="44.262665" style="fill: #ff80ff; stroke: #ff80ff"/>
     <use xlink:href="#m857e76a41c" x="558.147727" y="51.926165" style="fill: #ff80ff; stroke: #ff80ff"/>
     <use xlink:href="#m857e76a41c" x="573.252955" y="45.515894" style="fill: #ff80ff; stroke: #ff80ff"/>
     <use xlink:href="#m857e76a41c" x="588.358182" y="48.039836" style="fill: #ff80ff; stroke: #ff80ff"/>
     <use xlink:href="#m857e76a41c" x="603.463409" y="44.997586" style="fill: #ff80ff; stroke: #ff80ff"/>
     <use xlink:href="#m857e76a41c" x="618.568636" y="44.955945" style="fill: #ff80ff; stroke: #ff80ff"/>
     <use xlink:href="#m857e76a41c" x="633.673864" y="48.604708" style="fill: #ff80ff; stroke: #ff80ff"/>
     <use xlink:href="#m857e76a41c" x="648.779091" y="44.3381" style="fill: #ff80ff; stroke: #ff80ff"/>
     <use xlink:href="#m857e76a41c" x="663.884318" y="43.680237" style="fill: #ff80ff; stroke: #ff80ff"/>
     <use xlink:href="#m857e76a41c" x="678.989545" y="46.264513" style="fill: #ff80ff; stroke: #ff80ff"/>
    </g>
   </g>
   <g id="line2d_36">
    <path d="M 74.780455 163.097627 
L 89.885682 103.268665 
L 104.990909 94.08136 
L 120.096136 84.162971 
L 135.201364 90.836163 
L 150.306591 86.289728 
L 165.411818 74.32189 
L 180.517045 97.99559 
L 195.622273 76.094124 
L 210.7275 87.836428 
L 225.832727 71.89763 
L 240.937955 71.914681 
L 256.043182 65.218769 
L 271.148409 63.643501 
L 286.253636 75.509146 
L 301.358864 67.742064 
L 316.464091 66.472584 
L 331.569318 63.752286 
L 346.674545 57.65086 
L 361.779773 60.328914 
L 376.885 63.870701 
L 391.990227 60.545896 
L 407.095455 59.573719 
L 422.200682 59.746847 
L 437.305909 61.686479 
L 452.411136 61.704646 
L 467.516364 60.024806 
L 482.621591 57.039375 
L 497.726818 58.232342 
L 512.832045 58.04342 
L 527.937273 53.902369 
L 543.0425 63.993047 
L 558.147727 58.016217 
L 573.252955 56.769805 
L 588.358182 60.703013 
L 603.463409 58.006746 
L 618.568636 194.487781 
L 633.673864 58.439009 
L 648.779091 56.432541 
L 663.884318 55.886842 
L 678.989545 54.16939 
" clip-path="url(#p958236ed79)" style="fill: none; stroke-dasharray: 9.6,2.4,1.5,2.4; stroke-dashoffset: 0; stroke: #46cc33; stroke-width: 1.5"/>
    <defs>
     <path id="m93d9bfb2de" d="M -3 3 
L 3 -3 
M -3 -3 
L 3 3 
" style="stroke: #46cc33"/>
    </defs>
    <g clip-path="url(#p958236ed79)">
     <use xlink:href="#m93d9bfb2de" x="74.780455" y="163.097627" style="fill: #46cc33; stroke: #46cc33"/>
     <use xlink:href="#m93d9bfb2de" x="89.885682" y="103.268665" style="fill: #46cc33; stroke: #46cc33"/>
     <use xlink:href="#m93d9bfb2de" x="104.990909" y="94.08136" style="fill: #46cc33; stroke: #46cc33"/>
     <use xlink:href="#m93d9bfb2de" x="120.096136" y="84.162971" style="fill: #46cc33; stroke: #46cc33"/>
     <use xlink:href="#m93d9bfb2de" x="135.201364" y="90.836163" style="fill: #46cc33; stroke: #46cc33"/>
     <use xlink:href="#m93d9bfb2de" x="150.306591" y="86.289728" style="fill: #46cc33; stroke: #46cc33"/>
     <use xlink:href="#m93d9bfb2de" x="165.411818" y="74.32189" style="fill: #46cc33; stroke: #46cc33"/>
     <use xlink:href="#m93d9bfb2de" x="180.517045" y="97.99559" style="fill: #46cc33; stroke: #46cc33"/>
     <use xlink:href="#m93d9bfb2de" x="195.622273" y="76.094124" style="fill: #46cc33; stroke: #46cc33"/>
     <use xlink:href="#m93d9bfb2de" x="210.7275" y="87.836428" style="fill: #46cc33; stroke: #46cc33"/>
     <use xlink:href="#m93d9bfb2de" x="225.832727" y="71.89763" style="fill: #46cc33; stroke: #46cc33"/>
     <use xlink:href="#m93d9bfb2de" x="240.937955" y="71.914681" style="fill: #46cc33; stroke: #46cc33"/>
     <use xlink:href="#m93d9bfb2de" x="256.043182" y="65.218769" style="fill: #46cc33; stroke: #46cc33"/>
     <use xlink:href="#m93d9bfb2de" x="271.148409" y="63.643501" style="fill: #46cc33; stroke: #46cc33"/>
     <use xlink:href="#m93d9bfb2de" x="286.253636" y="75.509146" style="fill: #46cc33; stroke: #46cc33"/>
     <use xlink:href="#m93d9bfb2de" x="301.358864" y="67.742064" style="fill: #46cc33; stroke: #46cc33"/>
     <use xlink:href="#m93d9bfb2de" x="316.464091" y="66.472584" style="fill: #46cc33; stroke: #46cc33"/>
     <use xlink:href="#m93d9bfb2de" x="331.569318" y="63.752286" style="fill: #46cc33; stroke: #46cc33"/>
     <use xlink:href="#m93d9bfb2de" x="346.674545" y="57.65086" style="fill: #46cc33; stroke: #46cc33"/>
     <use xlink:href="#m93d9bfb2de" x="361.779773" y="60.328914" style="fill: #46cc33; stroke: #46cc33"/>
     <use xlink:href="#m93d9bfb2de" x="376.885" y="63.870701" style="fill: #46cc33; stroke: #46cc33"/>
     <use xlink:href="#m93d9bfb2de" x="391.990227" y="60.545896" style="fill: #46cc33; stroke: #46cc33"/>
     <use xlink:href="#m93d9bfb2de" x="407.095455" y="59.573719" style="fill: #46cc33; stroke: #46cc33"/>
     <use xlink:href="#m93d9bfb2de" x="422.200682" y="59.746847" style="fill: #46cc33; stroke: #46cc33"/>
     <use xlink:href="#m93d9bfb2de" x="437.305909" y="61.686479" style="fill: #46cc33; stroke: #46cc33"/>
     <use xlink:href="#m93d9bfb2de" x="452.411136" y="61.704646" style="fill: #46cc33; stroke: #46cc33"/>
     <use xlink:href="#m93d9bfb2de" x="467.516364" y="60.024806" style="fill: #46cc33; stroke: #46cc33"/>
     <use xlink:href="#m93d9bfb2de" x="482.621591" y="57.039375" style="fill: #46cc33; stroke: #46cc33"/>
     <use xlink:href="#m93d9bfb2de" x="497.726818" y="58.232342" style="fill: #46cc33; stroke: #46cc33"/>
     <use xlink:href="#m93d9bfb2de" x="512.832045" y="58.04342" style="fill: #46cc33; stroke: #46cc33"/>
     <use xlink:href="#m93d9bfb2de" x="527.937273" y="53.902369" style="fill: #46cc33; stroke: #46cc33"/>
     <use xlink:href="#m93d9bfb2de" x="543.0425" y="63.993047" style="fill: #46cc33; stroke: #46cc33"/>
     <use xlink:href="#m93d9bfb2de" x="558.147727" y="58.016217" style="fill: #46cc33; stroke: #46cc33"/>
     <use xlink:href="#m93d9bfb2de" x="573.252955" y="56.769805" style="fill: #46cc33; stroke: #46cc33"/>
     <use xlink:href="#m93d9bfb2de" x="588.358182" y="60.703013" style="fill: #46cc33; stroke: #46cc33"/>
     <use xlink:href="#m93d9bfb2de" x="603.463409" y="58.006746" style="fill: #46cc33; stroke: #46cc33"/>
     <use xlink:href="#m93d9bfb2de" x="618.568636" y="194.487781" style="fill: #46cc33; stroke: #46cc33"/>
     <use xlink:href="#m93d9bfb2de" x="633.673864" y="58.439009" style="fill: #46cc33; stroke: #46cc33"/>
     <use xlink:href="#m93d9bfb2de" x="648.779091" y="56.432541" style="fill: #46cc33; stroke: #46cc33"/>
     <use xlink:href="#m93d9bfb2de" x="663.884318" y="55.886842" style="fill: #46cc33; stroke: #46cc33"/>
     <use xlink:href="#m93d9bfb2de" x="678.989545" y="54.16939" style="fill: #46cc33; stroke: #46cc33"/>
    </g>
   </g>
   <g id="line2d_37">
    <path d="M 74.780455 276.194099 
L 89.885682 189.18734 
L 104.990909 173.221618 
L 120.096136 157.998309 
L 135.201364 170.702871 
L 150.306591 158.257482 
L 165.411818 141.695116 
L 180.517045 185.731628 
L 195.622273 144.13542 
L 210.7275 168.769178 
L 225.832727 135.58165 
L 240.937955 136.728019 
L 256.043182 125.058179 
L 271.148409 122.264987 
L 286.253636 143.240859 
L 301.358864 128.67916 
L 316.464091 128.016724 
L 331.569318 123.048101 
L 346.674545 112.166823 
L 361.779773 116.212813 
L 376.885 122.678883 
L 391.990227 115.253644 
L 407.095455 115.102026 
L 422.200682 114.933432 
L 437.305909 118.764712 
L 452.411136 118.518485 
L 467.516364 116.157022 
L 482.621591 110.611163 
L 497.726818 113.287754 
L 512.832045 111.320266 
L 527.937273 104.655492 
L 543.0425 121.227782 
L 558.147727 112.431285 
L 573.252955 109.995722 
L 588.358182 115.807527 
L 603.463409 112.277818 
L 618.568636 338.679763 
L 633.673864 113.001843 
L 648.779091 108.233891 
L 663.884318 107.880198 
L 678.989545 105.519289 
" clip-path="url(#p958236ed79)" style="fill: none; stroke: #ffa500; stroke-width: 1.5; stroke-linecap: square"/>
    <defs>
     <path id="ma997c3118a" d="M -0 4.242641 
L 2.545584 0 
L 0 -4.242641 
L -2.545584 -0 
z
" style="stroke: #ffa500; stroke-linejoin: miter"/>
    </defs>
    <g clip-path="url(#p958236ed79)">
     <use xlink:href="#ma997c3118a" x="74.780455" y="276.194099" style="fill: #ffa500; stroke: #ffa500; stroke-linejoin: miter"/>
     <use xlink:href="#ma997c3118a" x="89.885682" y="189.18734" style="fill: #ffa500; stroke: #ffa500; stroke-linejoin: miter"/>
     <use xlink:href="#ma997c3118a" x="104.990909" y="173.221618" style="fill: #ffa500; stroke: #ffa500; stroke-linejoin: miter"/>
     <use xlink:href="#ma997c3118a" x="120.096136" y="157.998309" style="fill: #ffa500; stroke: #ffa500; stroke-linejoin: miter"/>
     <use xlink:href="#ma997c3118a" x="135.201364" y="170.702871" style="fill: #ffa500; stroke: #ffa500; stroke-linejoin: miter"/>
     <use xlink:href="#ma997c3118a" x="150.306591" y="158.257482" style="fill: #ffa500; stroke: #ffa500; stroke-linejoin: miter"/>
     <use xlink:href="#ma997c3118a" x="165.411818" y="141.695116" style="fill: #ffa500; stroke: #ffa500; stroke-linejoin: miter"/>
     <use xlink:href="#ma997c3118a" x="180.517045" y="185.731628" style="fill: #ffa500; stroke: #ffa500; stroke-linejoin: miter"/>
     <use xlink:href="#ma997c3118a" x="195.622273" y="144.13542" style="fill: #ffa500; stroke: #ffa500; stroke-linejoin: miter"/>
     <use xlink:href="#ma997c3118a" x="210.7275" y="168.769178" style="fill: #ffa500; stroke: #ffa500; stroke-linejoin: miter"/>
     <use xlink:href="#ma997c3118a" x="225.832727" y="135.58165" style="fill: #ffa500; stroke: #ffa500; stroke-linejoin: miter"/>
     <use xlink:href="#ma997c3118a" x="240.937955" y="136.728019" style="fill: #ffa500; stroke: #ffa500; stroke-linejoin: miter"/>
     <use xlink:href="#ma997c3118a" x="256.043182" y="125.058179" style="fill: #ffa500; stroke: #ffa500; stroke-linejoin: miter"/>
     <use xlink:href="#ma997c3118a" x="271.148409" y="122.264987" style="fill: #ffa500; stroke: #ffa500; stroke-linejoin: miter"/>
     <use xlink:href="#ma997c3118a" x="286.253636" y="143.240859" style="fill: #ffa500; stroke: #ffa500; stroke-linejoin: miter"/>
     <use xlink:href="#ma997c3118a" x="301.358864" y="128.67916" style="fill: #ffa500; stroke: #ffa500; stroke-linejoin: miter"/>
     <use xlink:href="#ma997c3118a" x="316.464091" y="128.016724" style="fill: #ffa500; stroke: #ffa500; stroke-linejoin: miter"/>
     <use xlink:href="#ma997c3118a" x="331.569318" y="123.048101" style="fill: #ffa500; stroke: #ffa500; stroke-linejoin: miter"/>
     <use xlink:href="#ma997c3118a" x="346.674545" y="112.166823" style="fill: #ffa500; stroke: #ffa500; stroke-linejoin: miter"/>
     <use xlink:href="#ma997c3118a" x="361.779773" y="116.212813" style="fill: #ffa500; stroke: #ffa500; stroke-linejoin: miter"/>
     <use xlink:href="#ma997c3118a" x="376.885" y="122.678883" style="fill: #ffa500; stroke: #ffa500; stroke-linejoin: miter"/>
     <use xlink:href="#ma997c3118a" x="391.990227" y="115.253644" style="fill: #ffa500; stroke: #ffa500; stroke-linejoin: miter"/>
     <use xlink:href="#ma997c3118a" x="407.095455" y="115.102026" style="fill: #ffa500; stroke: #ffa500; stroke-linejoin: miter"/>
     <use xlink:href="#ma997c3118a" x="422.200682" y="114.933432" style="fill: #ffa500; stroke: #ffa500; stroke-linejoin: miter"/>
     <use xlink:href="#ma997c3118a" x="437.305909" y="118.764712" style="fill: #ffa500; stroke: #ffa500; stroke-linejoin: miter"/>
     <use xlink:href="#ma997c3118a" x="452.411136" y="118.518485" style="fill: #ffa500; stroke: #ffa500; stroke-linejoin: miter"/>
     <use xlink:href="#ma997c3118a" x="467.516364" y="116.157022" style="fill: #ffa500; stroke: #ffa500; stroke-linejoin: miter"/>
     <use xlink:href="#ma997c3118a" x="482.621591" y="110.611163" style="fill: #ffa500; stroke: #ffa500; stroke-linejoin: miter"/>
     <use xlink:href="#ma997c3118a" x="497.726818" y="113.287754" style="fill: #ffa500; stroke: #ffa500; stroke-linejoin: miter"/>
     <use xlink:href="#ma997c3118a" x="512.832045" y="111.320266" style="fill: #ffa500; stroke: #ffa500; stroke-linejoin: miter"/>
     <use xlink:href="#ma997c3118a" x="527.937273" y="104.655492" style="fill: #ffa500; stroke: #ffa500; stroke-linejoin: miter"/>
     <use xlink:href="#ma997c3118a" x="543.0425" y="121.227782" style="fill: #ffa500; stroke: #ffa500; stroke-linejoin: miter"/>
     <use xlink:href="#ma997c3118a" x="558.147727" y="112.431285" style="fill: #ffa500; stroke: #ffa500; stroke-linejoin: miter"/>
     <use xlink:href="#ma997c3118a" x="573.252955" y="109.995722" style="fill: #ffa500; stroke: #ffa500; stroke-linejoin: miter"/>
     <use xlink:href="#ma997c3118a" x="588.358182" y="115.807527" style="fill: #ffa500; stroke: #ffa500; stroke-linejoin: miter"/>
     <use xlink:href="#ma997c3118a" x="603.463409" y="112.277818" style="fill: #ffa500; stroke: #ffa500; stroke-linejoin: miter"/>
     <use xlink:href="#ma997c3118a" x="618.568636" y="338.679763" style="fill: #ffa500; stroke: #ffa500; stroke-linejoin: miter"/>
     <use xlink:href="#ma997c3118a" x="633.673864" y="113.001843" style="fill: #ffa500; stroke: #ffa500; stroke-linejoin: miter"/>
     <use xlink:href="#ma997c3118a" x="648.779091" y="108.233891" style="fill: #ffa500; stroke: #ffa500; stroke-linejoin: miter"/>
     <use xlink:href="#ma997c3118a" x="663.884318" y="107.880198" style="fill: #ffa500; stroke: #ffa500; stroke-linejoin: miter"/>
     <use xlink:href="#ma997c3118a" x="678.989545" y="105.519289" style="fill: #ffa500; stroke: #ffa500; stroke-linejoin: miter"/>
    </g>
   </g>
   <g id="patch_3">
    <path d="M 44.57 355.48 
L 44.57 26.88 
" style="fill: none; stroke: #000000; stroke-width: 0.8; stroke-linejoin: miter; stroke-linecap: square"/>
   </g>
   <g id="patch_4">
    <path d="M 709.2 355.48 
L 709.2 26.88 
" style="fill: none; stroke: #000000; stroke-width: 0.8; stroke-linejoin: miter; stroke-linecap: square"/>
   </g>
   <g id="patch_5">
    <path d="M 44.57 355.48 
L 709.2 355.48 
" style="fill: none; stroke: #000000; stroke-width: 0.8; stroke-linejoin: miter; stroke-linecap: square"/>
   </g>
   <g id="patch_6">
    <path d="M 44.57 26.88 
L 709.2 26.88 
" style="fill: none; stroke: #000000; stroke-width: 0.8; stroke-linejoin: miter; stroke-linecap: square"/>
   </g>
   <g id="text_20">
    <!-- DDRNet-23 Loss and Accuracy Graph - Accuracy -->
    <g transform="translate(231.896875 20.88) scale(0.12 -0.12)">
     <defs>
      <path id="DejaVuSans-44" d="M 1259 4147 
L 1259 519 
L 2022 519 
Q 2988 519 3436 956 
Q 3884 1394 3884 2338 
Q 3884 3275 3436 3711 
Q 2988 4147 2022 4147 
L 1259 4147 
z
M 628 4666 
L 1925 4666 
Q 3281 4666 3915 4102 
Q 4550 3538 4550 2338 
Q 4550 1131 3912 565 
Q 3275 0 1925 0 
L 628 0 
L 628 4666 
z
" transform="scale(0.015625)"/>
      <path id="DejaVuSans-52" d="M 2841 2188 
Q 3044 2119 3236 1894 
Q 3428 1669 3622 1275 
L 4263 0 
L 3584 0 
L 2988 1197 
Q 2756 1666 2539 1819 
Q 2322 1972 1947 1972 
L 1259 1972 
L 1259 0 
L 628 0 
L 628 4666 
L 2053 4666 
Q 2853 4666 3247 4331 
Q 3641 3997 3641 3322 
Q 3641 2881 3436 2590 
Q 3231 2300 2841 2188 
z
M 1259 4147 
L 1259 2491 
L 2053 2491 
Q 2509 2491 2742 2702 
Q 2975 2913 2975 3322 
Q 2975 3731 2742 3939 
Q 2509 4147 2053 4147 
L 1259 4147 
z
" transform="scale(0.015625)"/>
      <path id="DejaVuSans-4e" d="M 628 4666 
L 1478 4666 
L 3547 763 
L 3547 4666 
L 4159 4666 
L 4159 0 
L 3309 0 
L 1241 3903 
L 1241 0 
L 628 0 
L 628 4666 
z
" transform="scale(0.015625)"/>
      <path id="DejaVuSans-65" d="M 3597 1894 
L 3597 1613 
L 953 1613 
Q 991 1019 1311 708 
Q 1631 397 2203 397 
Q 2534 397 2845 478 
Q 3156 559 3463 722 
L 3463 178 
Q 3153 47 2828 -22 
Q 2503 -91 2169 -91 
Q 1331 -91 842 396 
Q 353 884 353 1716 
Q 353 2575 817 3079 
Q 1281 3584 2069 3584 
Q 2775 3584 3186 3129 
Q 3597 2675 3597 1894 
z
M 3022 2063 
Q 3016 2534 2758 2815 
Q 2500 3097 2075 3097 
Q 1594 3097 1305 2825 
Q 1016 2553 972 2059 
L 3022 2063 
z
" transform="scale(0.015625)"/>
      <path id="DejaVuSans-74" d="M 1172 4494 
L 1172 3500 
L 2356 3500 
L 2356 3053 
L 1172 3053 
L 1172 1153 
Q 1172 725 1289 603 
Q 1406 481 1766 481 
L 2356 481 
L 2356 0 
L 1766 0 
Q 1100 0 847 248 
Q 594 497 594 1153 
L 594 3053 
L 172 3053 
L 172 3500 
L 594 3500 
L 594 4494 
L 1172 4494 
z
" transform="scale(0.015625)"/>
      <path id="DejaVuSans-2d" d="M 313 2009 
L 1997 2009 
L 1997 1497 
L 313 1497 
L 313 2009 
z
" transform="scale(0.015625)"/>
      <path id="DejaVuSans-4c" d="M 628 4666 
L 1259 4666 
L 1259 531 
L 3531 531 
L 3531 0 
L 628 0 
L 628 4666 
z
" transform="scale(0.015625)"/>
      <path id="DejaVuSans-73" d="M 2834 3397 
L 2834 2853 
Q 2591 2978 2328 3040 
Q 2066 3103 1784 3103 
Q 1356 3103 1142 2972 
Q 928 2841 928 2578 
Q 928 2378 1081 2264 
Q 1234 2150 1697 2047 
L 1894 2003 
Q 2506 1872 2764 1633 
Q 3022 1394 3022 966 
Q 3022 478 2636 193 
Q 2250 -91 1575 -91 
Q 1294 -91 989 -36 
Q 684 19 347 128 
L 347 722 
Q 666 556 975 473 
Q 1284 391 1588 391 
Q 1994 391 2212 530 
Q 2431 669 2431 922 
Q 2431 1156 2273 1281 
Q 2116 1406 1581 1522 
L 1381 1569 
Q 847 1681 609 1914 
Q 372 2147 372 2553 
Q 372 3047 722 3315 
Q 1072 3584 1716 3584 
Q 2034 3584 2315 3537 
Q 2597 3491 2834 3397 
z
" transform="scale(0.015625)"/>
      <path id="DejaVuSans-6e" d="M 3513 2113 
L 3513 0 
L 2938 0 
L 2938 2094 
Q 2938 2591 2744 2837 
Q 2550 3084 2163 3084 
Q 1697 3084 1428 2787 
Q 1159 2491 1159 1978 
L 1159 0 
L 581 0 
L 581 3500 
L 1159 3500 
L 1159 2956 
Q 1366 3272 1645 3428 
Q 1925 3584 2291 3584 
Q 2894 3584 3203 3211 
Q 3513 2838 3513 2113 
z
" transform="scale(0.015625)"/>
      <path id="DejaVuSans-64" d="M 2906 2969 
L 2906 4863 
L 3481 4863 
L 3481 0 
L 2906 0 
L 2906 525 
Q 2725 213 2448 61 
Q 2172 -91 1784 -91 
Q 1150 -91 751 415 
Q 353 922 353 1747 
Q 353 2572 751 3078 
Q 1150 3584 1784 3584 
Q 2172 3584 2448 3432 
Q 2725 3281 2906 2969 
z
M 947 1747 
Q 947 1113 1208 752 
Q 1469 391 1925 391 
Q 2381 391 2643 752 
Q 2906 1113 2906 1747 
Q 2906 2381 2643 2742 
Q 2381 3103 1925 3103 
Q 1469 3103 1208 2742 
Q 947 2381 947 1747 
z
" transform="scale(0.015625)"/>
      <path id="DejaVuSans-47" d="M 3809 666 
L 3809 1919 
L 2778 1919 
L 2778 2438 
L 4434 2438 
L 4434 434 
Q 4069 175 3628 42 
Q 3188 -91 2688 -91 
Q 1594 -91 976 548 
Q 359 1188 359 2328 
Q 359 3472 976 4111 
Q 1594 4750 2688 4750 
Q 3144 4750 3555 4637 
Q 3966 4525 4313 4306 
L 4313 3634 
Q 3963 3931 3569 4081 
Q 3175 4231 2741 4231 
Q 1884 4231 1454 3753 
Q 1025 3275 1025 2328 
Q 1025 1384 1454 906 
Q 1884 428 2741 428 
Q 3075 428 3337 486 
Q 3600 544 3809 666 
z
" transform="scale(0.015625)"/>
     </defs>
     <use xlink:href="#DejaVuSans-44"/>
     <use xlink:href="#DejaVuSans-44" transform="translate(77.001953 0)"/>
     <use xlink:href="#DejaVuSans-52" transform="translate(154.003906 0)"/>
     <use xlink:href="#DejaVuSans-4e" transform="translate(223.486328 0)"/>
     <use xlink:href="#DejaVuSans-65" transform="translate(298.291016 0)"/>
     <use xlink:href="#DejaVuSans-74" transform="translate(359.814453 0)"/>
     <use xlink:href="#DejaVuSans-2d" transform="translate(399.023438 0)"/>
     <use xlink:href="#DejaVuSans-32" transform="translate(435.107422 0)"/>
     <use xlink:href="#DejaVuSans-33" transform="translate(498.730469 0)"/>
     <use xlink:href="#DejaVuSans-20" transform="translate(562.353516 0)"/>
     <use xlink:href="#DejaVuSans-4c" transform="translate(594.140625 0)"/>
     <use xlink:href="#DejaVuSans-6f" transform="translate(648.103516 0)"/>
     <use xlink:href="#DejaVuSans-73" transform="translate(709.285156 0)"/>
     <use xlink:href="#DejaVuSans-73" transform="translate(761.384766 0)"/>
     <use xlink:href="#DejaVuSans-20" transform="translate(813.484375 0)"/>
     <use xlink:href="#DejaVuSans-61" transform="translate(845.271484 0)"/>
     <use xlink:href="#DejaVuSans-6e" transform="translate(906.550781 0)"/>
     <use xlink:href="#DejaVuSans-64" transform="translate(969.929688 0)"/>
     <use xlink:href="#DejaVuSans-20" transform="translate(1033.40625 0)"/>
     <use xlink:href="#DejaVuSans-41" transform="translate(1065.193359 0)"/>
     <use xlink:href="#DejaVuSans-63" transform="translate(1131.851562 0)"/>
     <use xlink:href="#DejaVuSans-63" transform="translate(1186.832031 0)"/>
     <use xlink:href="#DejaVuSans-75" transform="translate(1241.8125 0)"/>
     <use xlink:href="#DejaVuSans-72" transform="translate(1305.191406 0)"/>
     <use xlink:href="#DejaVuSans-61" transform="translate(1346.304688 0)"/>
     <use xlink:href="#DejaVuSans-63" transform="translate(1407.583984 0)"/>
     <use xlink:href="#DejaVuSans-79" transform="translate(1462.564453 0)"/>
     <use xlink:href="#DejaVuSans-20" transform="translate(1521.744141 0)"/>
     <use xlink:href="#DejaVuSans-47" transform="translate(1553.53125 0)"/>
     <use xlink:href="#DejaVuSans-72" transform="translate(1631.021484 0)"/>
     <use xlink:href="#DejaVuSans-61" transform="translate(1672.134766 0)"/>
     <use xlink:href="#DejaVuSans-70" transform="translate(1733.414062 0)"/>
     <use xlink:href="#DejaVuSans-68" transform="translate(1796.890625 0)"/>
     <use xlink:href="#DejaVuSans-20" transform="translate(1860.269531 0)"/>
     <use xlink:href="#DejaVuSans-2d" transform="translate(1892.056641 0)"/>
     <use xlink:href="#DejaVuSans-20" transform="translate(1928.140625 0)"/>
     <use xlink:href="#DejaVuSans-41" transform="translate(1959.927734 0)"/>
     <use xlink:href="#DejaVuSans-63" transform="translate(2026.585938 0)"/>
     <use xlink:href="#DejaVuSans-63" transform="translate(2081.566406 0)"/>
     <use xlink:href="#DejaVuSans-75" transform="translate(2136.546875 0)"/>
     <use xlink:href="#DejaVuSans-72" transform="translate(2199.925781 0)"/>
     <use xlink:href="#DejaVuSans-61" transform="translate(2241.039062 0)"/>
     <use xlink:href="#DejaVuSans-63" transform="translate(2302.318359 0)"/>
     <use xlink:href="#DejaVuSans-79" transform="translate(2357.298828 0)"/>
    </g>
   </g>
  </g>
  <g id="legend_1">
   <g id="patch_7">
    <path d="M 217.678906 414.04 
L 502.321094 414.04 
Q 504.321094 414.04 504.321094 412.04 
L 504.321094 398.361875 
Q 504.321094 396.361875 502.321094 396.361875 
L 217.678906 396.361875 
Q 215.678906 396.361875 215.678906 398.361875 
L 215.678906 412.04 
Q 215.678906 414.04 217.678906 414.04 
z
" style="fill: #ffffff; opacity: 0.8; stroke: #cccccc; stroke-linejoin: miter"/>
   </g>
   <g id="line2d_38">
    <path d="M 219.678906 404.460312 
L 229.678906 404.460312 
L 239.678906 404.460312 
" style="fill: none; stroke-dasharray: 1.5,2.475; stroke-dashoffset: 0; stroke: #ff80ff; stroke-width: 1.5"/>
    <g>
     <use xlink:href="#m857e76a41c" x="229.678906" y="404.460312" style="fill: #ff80ff; stroke: #ff80ff"/>
    </g>
   </g>
   <g id="text_21">
    <!-- Training Acc -->
    <g transform="translate(247.678906 407.960312) scale(0.1 -0.1)">
     <defs>
      <path id="DejaVuSans-54" d="M -19 4666 
L 3928 4666 
L 3928 4134 
L 2272 4134 
L 2272 0 
L 1638 0 
L 1638 4134 
L -19 4134 
L -19 4666 
z
" transform="scale(0.015625)"/>
      <path id="DejaVuSans-69" d="M 603 3500 
L 1178 3500 
L 1178 0 
L 603 0 
L 603 3500 
z
M 603 4863 
L 1178 4863 
L 1178 4134 
L 603 4134 
L 603 4863 
z
" transform="scale(0.015625)"/>
      <path id="DejaVuSans-67" d="M 2906 1791 
Q 2906 2416 2648 2759 
Q 2391 3103 1925 3103 
Q 1463 3103 1205 2759 
Q 947 2416 947 1791 
Q 947 1169 1205 825 
Q 1463 481 1925 481 
Q 2391 481 2648 825 
Q 2906 1169 2906 1791 
z
M 3481 434 
Q 3481 -459 3084 -895 
Q 2688 -1331 1869 -1331 
Q 1566 -1331 1297 -1286 
Q 1028 -1241 775 -1147 
L 775 -588 
Q 1028 -725 1275 -790 
Q 1522 -856 1778 -856 
Q 2344 -856 2625 -561 
Q 2906 -266 2906 331 
L 2906 616 
Q 2728 306 2450 153 
Q 2172 0 1784 0 
Q 1141 0 747 490 
Q 353 981 353 1791 
Q 353 2603 747 3093 
Q 1141 3584 1784 3584 
Q 2172 3584 2450 3431 
Q 2728 3278 2906 2969 
L 2906 3500 
L 3481 3500 
L 3481 434 
z
" transform="scale(0.015625)"/>
     </defs>
     <use xlink:href="#DejaVuSans-54"/>
     <use xlink:href="#DejaVuSans-72" transform="translate(46.333984 0)"/>
     <use xlink:href="#DejaVuSans-61" transform="translate(87.447266 0)"/>
     <use xlink:href="#DejaVuSans-69" transform="translate(148.726562 0)"/>
     <use xlink:href="#DejaVuSans-6e" transform="translate(176.509766 0)"/>
     <use xlink:href="#DejaVuSans-69" transform="translate(239.888672 0)"/>
     <use xlink:href="#DejaVuSans-6e" transform="translate(267.671875 0)"/>
     <use xlink:href="#DejaVuSans-67" transform="translate(331.050781 0)"/>
     <use xlink:href="#DejaVuSans-20" transform="translate(394.527344 0)"/>
     <use xlink:href="#DejaVuSans-41" transform="translate(426.314453 0)"/>
     <use xlink:href="#DejaVuSans-63" transform="translate(492.972656 0)"/>
     <use xlink:href="#DejaVuSans-63" transform="translate(547.953125 0)"/>
    </g>
   </g>
   <g id="line2d_39">
    <path d="M 327.971094 404.460312 
L 337.971094 404.460312 
L 347.971094 404.460312 
" style="fill: none; stroke-dasharray: 9.6,2.4,1.5,2.4; stroke-dashoffset: 0; stroke: #46cc33; stroke-width: 1.5"/>
    <g>
     <use xlink:href="#m93d9bfb2de" x="337.971094" y="404.460312" style="fill: #46cc33; stroke: #46cc33"/>
    </g>
   </g>
   <g id="text_22">
    <!-- Validation Acc -->
    <g transform="translate(355.971094 407.960312) scale(0.1 -0.1)">
     <defs>
      <path id="DejaVuSans-56" d="M 1831 0 
L 50 4666 
L 709 4666 
L 2188 738 
L 3669 4666 
L 4325 4666 
L 2547 0 
L 1831 0 
z
" transform="scale(0.015625)"/>
      <path id="DejaVuSans-6c" d="M 603 4863 
L 1178 4863 
L 1178 0 
L 603 0 
L 603 4863 
z
" transform="scale(0.015625)"/>
     </defs>
     <use xlink:href="#DejaVuSans-56"/>
     <use xlink:href="#DejaVuSans-61" transform="translate(60.658203 0)"/>
     <use xlink:href="#DejaVuSans-6c" transform="translate(121.9375 0)"/>
     <use xlink:href="#DejaVuSans-69" transform="translate(149.720703 0)"/>
     <use xlink:href="#DejaVuSans-64" transform="translate(177.503906 0)"/>
     <use xlink:href="#DejaVuSans-61" transform="translate(240.980469 0)"/>
     <use xlink:href="#DejaVuSans-74" transform="translate(302.259766 0)"/>
     <use xlink:href="#DejaVuSans-69" transform="translate(341.46875 0)"/>
     <use xlink:href="#DejaVuSans-6f" transform="translate(369.251953 0)"/>
     <use xlink:href="#DejaVuSans-6e" transform="translate(430.433594 0)"/>
     <use xlink:href="#DejaVuSans-20" transform="translate(493.8125 0)"/>
     <use xlink:href="#DejaVuSans-41" transform="translate(525.599609 0)"/>
     <use xlink:href="#DejaVuSans-63" transform="translate(592.257812 0)"/>
     <use xlink:href="#DejaVuSans-63" transform="translate(647.238281 0)"/>
    </g>
   </g>
   <g id="line2d_40">
    <path d="M 446.192969 404.460312 
L 456.192969 404.460312 
L 466.192969 404.460312 
" style="fill: none; stroke: #ffa500; stroke-width: 1.5; stroke-linecap: square"/>
    <g>
     <use xlink:href="#ma997c3118a" x="456.192969" y="404.460312" style="fill: #ffa500; stroke: #ffa500; stroke-linejoin: miter"/>
    </g>
   </g>
   <g id="text_23">
    <!-- mIoU -->
    <g transform="translate(474.192969 407.960312) scale(0.1 -0.1)">
     <use xlink:href="#DejaVuSans-6d"/>
     <use xlink:href="#DejaVuSans-49" transform="translate(97.412109 0)"/>
     <use xlink:href="#DejaVuSans-6f" transform="translate(126.904297 0)"/>
     <use xlink:href="#DejaVuSans-55" transform="translate(188.085938 0)"/>
    </g>
   </g>
  </g>
 </g>
 <defs>
  <clipPath id="p958236ed79">
   <rect x="44.57" y="26.88" width="664.63" height="328.6"/>
  </clipPath>
 </defs>
</svg>
