<?xml version="1.0" encoding="utf-8" standalone="no"?>
<!DOCTYPE svg PUBLIC "-//W3C//DTD SVG 1.1//EN"
  "http://www.w3.org/Graphics/SVG/1.1/DTD/svg11.dtd">
<svg xmlns:xlink="http://www.w3.org/1999/xlink" width="864pt" height="576pt" viewBox="0 0 864 576" xmlns="http://www.w3.org/2000/svg" version="1.1">
 <metadata>
  <rdf:RDF xmlns:dc="http://purl.org/dc/elements/1.1/" xmlns:cc="http://creativecommons.org/ns#" xmlns:rdf="http://www.w3.org/1999/02/22-rdf-syntax-ns#">
   <cc:Work>
    <dc:type rdf:resource="http://purl.org/dc/dcmitype/StillImage"/>
    <dc:date>2026-04-10T12:51:40.131524</dc:date>
    <dc:format>image/svg+xml</dc:format>
    <dc:creator>
     <cc:Agent>
      <dc:title>Matplotlib v3.10.8, https://matplotlib.org/</dc:title>
     </cc:Agent>
    </dc:creator>
   </cc:Work>
  </rdf:RDF>
 </metadata>
 <defs>
  <style type="text/css">*{stroke-linejoin: round; stroke-linecap: butt}</style>
 </defs>
 <g id="figure_1">
  <g id="patch_1">
   <path d="M 0 576 
L 864 576 
L 864 0 
L 0 0 
z
" style="fill: #ffffff"/>
  </g>
  <g id="axes_1">
   <g id="patch_2">
    <path d="M 44.57 487.96 
L 816.28 487.96 
L 816.28 26.88 
L 44.57 26.88 
z
" style="fill: #ffffff"/>
   </g>
   <g id="matplotlib.axis_1">
    <g id="xtick_1">
     <g id="line2d_1">
      <path d="M 62.108864 487.96 
L 62.108864 26.88 
" clip-path="url(#p9afd1998ec)" style="fill: none; stroke-dasharray: 2.96,1.28; stroke-dashoffset: 0; stroke: #b0b0b0; stroke-opacity: 0.3; stroke-width: 0.8"/>
     </g>
     <g id="line2d_2">
      <defs>
       <path id="m16e76d1db4" d="M 0 0 
L 0 3.5 
" style="stroke: #000000; stroke-width: 0.8"/>
      </defs>
      <g>
       <use xlink:href="#m16e76d1db4" x="62.108864" y="487.96" style="stroke: #000000; stroke-width: 0.8"/>
      </g>
     </g>
     <g id="text_1">
      <!-- 0 -->
      <g transform="translate(58.927614 502.558437) scale(0.1 -0.1)">
       <defs>
        <path id="DejaVuSans-30" d="M 2034 4250 
Q 1547 4250 1301 3770 
Q 1056 3291 1056 2328 
Q 1056 1369 1301 889 
Q 1547 409 2034 409 
Q 2525 409 2770 889 
Q 3016 1369 3016 2328 
Q 3016 3291 2770 3770 
Q 2525 4250 2034 4250 
z
M 2034 4750 
Q 2819 4750 3233 4129 
Q 3647 3509 3647 2328 
Q 3647 1150 3233 529 
Q 2819 -91 2034 -91 
Q 1250 -91 836 529 
Q 422 1150 422 2328 
Q 422 3509 836 4129 
Q 1250 4750 2034 4750 
z
" transform="scale(0.015625)"/>
       </defs>
       <use xlink:href="#DejaVuSans-30"/>
      </g>
     </g>
    </g>
    <g id="xtick_2">
     <g id="line2d_3">
      <path d="M 149.803182 487.96 
L 149.803182 26.88 
" clip-path="url(#p9afd1998ec)" style="fill: none; stroke-dasharray: 2.96,1.28; stroke-dashoffset: 0; stroke: #b0b0b0; stroke-opacity: 0.3; stroke-width: 0.8"/>
     </g>
     <g id="line2d_4">
      <g>
       <use xlink:href="#m16e76d1db4" x="149.803182" y="487.96" style="stroke: #000000; stroke-width: 0.8"/>
      </g>
     </g>
     <g id="text_2">
      <!-- 5 -->
      <g transform="translate(146.621932 502.558437) scale(0.1 -0.1)">
       <defs>
        <path id="DejaVuSans-35" d="M 691 4666 
L 3169 4666 
L 3169 4134 
L 1269 4134 
L 1269 2991 
Q 1406 3038 1543 3061 
Q 1681 3084 1819 3084 
Q 2600 3084 3056 2656 
Q 3513 2228 3513 1497 
Q 3513 744 3044 326 
Q 2575 -91 1722 -91 
Q 1428 -91 1123 -41 
Q 819 9 494 109 
L 494 744 
Q 775 591 1075 516 
Q 1375 441 1709 441 
Q 2250 441 2565 725 
Q 2881 1009 2881 1497 
Q 2881 1984 2565 2268 
Q 2250 2553 1709 2553 
Q 1456 2553 1204 2497 
Q 953 2441 691 2322 
L 691 4666 
z
" transform="scale(0.015625)"/>
       </defs>
       <use xlink:href="#DejaVuSans-35"/>
      </g>
     </g>
    </g>
    <g id="xtick_3">
     <g id="line2d_5">
      <path d="M 237.4975 487.96 
L 237.4975 26.88 
" clip-path="url(#p9afd1998ec)" style="fill: none; stroke-dasharray: 2.96,1.28; stroke-dashoffset: 0; stroke: #b0b0b0; stroke-opacity: 0.3; stroke-width: 0.8"/>
     </g>
     <g id="line2d_6">
      <g>
       <use xlink:href="#m16e76d1db4" x="237.4975" y="487.96" style="stroke: #000000; stroke-width: 0.8"/>
      </g>
     </g>
     <g id="text_3">
      <!-- 10 -->
      <g transform="translate(231.135 502.558437) scale(0.1 -0.1)">
       <defs>
        <path id="DejaVuSans-31" d="M 794 531 
L 1825 531 
L 1825 4091 
L 703 3866 
L 703 4441 
L 1819 4666 
L 2450 4666 
L 2450 531 
L 3481 531 
L 3481 0 
L 794 0 
L 794 531 
z
" transform="scale(0.015625)"/>
       </defs>
       <use xlink:href="#DejaVuSans-31"/>
       <use xlink:href="#DejaVuSans-30" transform="translate(63.623047 0)"/>
      </g>
     </g>
    </g>
    <g id="xtick_4">
     <g id="line2d_7">
      <path d="M 325.191818 487.96 
L 325.191818 26.88 
" clip-path="url(#p9afd1998ec)" style="fill: none; stroke-dasharray: 2.96,1.28; stroke-dashoffset: 0; stroke: #b0b0b0; stroke-opacity: 0.3; stroke-width: 0.8"/>
     </g>
     <g id="line2d_8">
      <g>
       <use xlink:href="#m16e76d1db4" x="325.191818" y="487.96" style="stroke: #000000; stroke-width: 0.8"/>
      </g>
     </g>
     <g id="text_4">
      <!-- 15 -->
      <g transform="translate(318.829318 502.558437) scale(0.1 -0.1)">
       <use xlink:href="#DejaVuSans-31"/>
       <use xlink:href="#DejaVuSans-35" transform="translate(63.623047 0)"/>
      </g>
     </g>
    </g>
    <g id="xtick_5">
     <g id="line2d_9">
      <path d="M 412.886136 487.96 
L 412.886136 26.88 
" clip-path="url(#p9afd1998ec)" style="fill: none; stroke-dasharray: 2.96,1.28; stroke-dashoffset: 0; stroke: #b0b0b0; stroke-opacity: 0.3; stroke-width: 0.8"/>
     </g>
     <g id="line2d_10">
      <g>
       <use xlink:href="#m16e76d1db4" x="412.886136" y="487.96" style="stroke: #000000; stroke-width: 0.8"/>
      </g>
     </g>
     <g id="text_5">
      <!-- 20 -->
      <g transform="translate(406.523636 502.558437) scale(0.1 -0.1)">
       <defs>
        <path id="DejaVuSans-32" d="M 1228 531 
L 3431 531 
L 3431 0 
L 469 0 
L 469 531 
Q 828 903 1448 1529 
Q 2069 2156 2228 2338 
Q 2531 2678 2651 2914 
Q 2772 3150 2772 3378 
Q 2772 3750 2511 3984 
Q 2250 4219 1831 4219 
Q 1534 4219 1204 4116 
Q 875 4013 500 3803 
L 500 4441 
Q 881 4594 1212 4672 
Q 1544 4750 1819 4750 
Q 2544 4750 2975 4387 
Q 3406 4025 3406 3419 
Q 3406 3131 3298 2873 
Q 3191 2616 2906 2266 
Q 2828 2175 2409 1742 
Q 1991 1309 1228 531 
z
" transform="scale(0.015625)"/>
       </defs>
       <use xlink:href="#DejaVuSans-32"/>
       <use xlink:href="#DejaVuSans-30" transform="translate(63.623047 0)"/>
      </g>
     </g>
    </g>
    <g id="xtick_6">
     <g id="line2d_11">
      <path d="M 500.580455 487.96 
L 500.580455 26.88 
" clip-path="url(#p9afd1998ec)" style="fill: none; stroke-dasharray: 2.96,1.28; stroke-dashoffset: 0; stroke: #b0b0b0; stroke-opacity: 0.3; stroke-width: 0.8"/>
     </g>
     <g id="line2d_12">
      <g>
       <use xlink:href="#m16e76d1db4" x="500.580455" y="487.96" style="stroke: #000000; stroke-width: 0.8"/>
      </g>
     </g>
     <g id="text_6">
      <!-- 25 -->
      <g transform="translate(494.217955 502.558437) scale(0.1 -0.1)">
       <use xlink:href="#DejaVuSans-32"/>
       <use xlink:href="#DejaVuSans-35" transform="translate(63.623047 0)"/>
      </g>
     </g>
    </g>
    <g id="xtick_7">
     <g id="line2d_13">
      <path d="M 588.274773 487.96 
L 588.274773 26.88 
" clip-path="url(#p9afd1998ec)" style="fill: none; stroke-dasharray: 2.96,1.28; stroke-dashoffset: 0; stroke: #b0b0b0; stroke-opacity: 0.3; stroke-width: 0.8"/>
     </g>
     <g id="line2d_14">
      <g>
       <use xlink:href="#m16e76d1db4" x="588.274773" y="487.96" style="stroke: #000000; stroke-width: 0.8"/>
      </g>
     </g>
     <g id="text_7">
      <!-- 30 -->
      <g transform="translate(581.912273 502.558437) scale(0.1 -0.1)">
       <defs>
        <path id="DejaVuSans-33" d="M 2597 2516 
Q 3050 2419 3304 2112 
Q 3559 1806 3559 1356 
Q 3559 666 3084 287 
Q 2609 -91 1734 -91 
Q 1441 -91 1130 -33 
Q 819 25 488 141 
L 488 750 
Q 750 597 1062 519 
Q 1375 441 1716 441 
Q 2309 441 2620 675 
Q 2931 909 2931 1356 
Q 2931 1769 2642 2001 
Q 2353 2234 1838 2234 
L 1294 2234 
L 1294 2753 
L 1863 2753 
Q 2328 2753 2575 2939 
Q 2822 3125 2822 3475 
Q 2822 3834 2567 4026 
Q 2313 4219 1838 4219 
Q 1578 4219 1281 4162 
Q 984 4106 628 3988 
L 628 4550 
Q 988 4650 1302 4700 
Q 1616 4750 1894 4750 
Q 2613 4750 3031 4423 
Q 3450 4097 3450 3541 
Q 3450 3153 3228 2886 
Q 3006 2619 2597 2516 
z
" transform="scale(0.015625)"/>
       </defs>
       <use xlink:href="#DejaVuSans-33"/>
       <use xlink:href="#DejaVuSans-30" transform="translate(63.623047 0)"/>
      </g>
     </g>
    </g>
    <g id="xtick_8">
     <g id="line2d_15">
      <path d="M 675.969091 487.96 
L 675.969091 26.88 
" clip-path="url(#p9afd1998ec)" style="fill: none; stroke-dasharray: 2.96,1.28; stroke-dashoffset: 0; stroke: #b0b0b0; stroke-opacity: 0.3; stroke-width: 0.8"/>
     </g>
     <g id="line2d_16">
      <g>
       <use xlink:href="#m16e76d1db4" x="675.969091" y="487.96" style="stroke: #000000; stroke-width: 0.8"/>
      </g>
     </g>
     <g id="text_8">
      <!-- 35 -->
      <g transform="translate(669.606591 502.558437) scale(0.1 -0.1)">
       <use xlink:href="#DejaVuSans-33"/>
       <use xlink:href="#DejaVuSans-35" transform="translate(63.623047 0)"/>
      </g>
     </g>
    </g>
    <g id="xtick_9">
     <g id="line2d_17">
      <path d="M 763.663409 487.96 
L 763.663409 26.88 
" clip-path="url(#p9afd1998ec)" style="fill: none; stroke-dasharray: 2.96,1.28; stroke-dashoffset: 0; stroke: #b0b0b0; stroke-opacity: 0.3; stroke-width: 0.8"/>
     </g>
     <g id="line2d_18">
      <g>
       <use xlink:href="#m16e76d1db4" x="763.663409" y="487.96" style="stroke: #000000; stroke-width: 0.8"/>
      </g>
     </g>
     <g id="text_9">
      <!-- 40 -->
      <g transform="translate(757.300909 502.558437) scale(0.1 -0.1)">
       <defs>
        <path id="DejaVuSans-34" d="M 2419 4116 
L 825 1625 
L 2419 1625 
L 2419 4116 
z
M 2253 4666 
L 3047 4666 
L 3047 1625 
L 3713 1625 
L 3713 1100 
L 3047 1100 
L 3047 0 
L 2419 0 
L 2419 1100 
L 313 1100 
L 313 1709 
L 2253 4666 
z
" transform="scale(0.015625)"/>
       </defs>
       <use xlink:href="#DejaVuSans-34"/>
       <use xlink:href="#DejaVuSans-30" transform="translate(63.623047 0)"/>
      </g>
     </g>
    </g>
    <g id="text_10">
     <!-- Epoch -->
     <g transform="translate(415.114062 516.236562) scale(0.1 -0.1)">
      <defs>
       <path id="DejaVuSans-45" d="M 628 4666 
L 3578 4666 
L 3578 4134 
L 1259 4134 
L 1259 2753 
L 3481 2753 
L 3481 2222 
L 1259 2222 
L 1259 531 
L 3634 531 
L 3634 0 
L 628 0 
L 628 4666 
z
" transform="scale(0.015625)"/>
       <path id="DejaVuSans-70" d="M 1159 525 
L 1159 -1331 
L 581 -1331 
L 581 3500 
L 1159 3500 
L 1159 2969 
Q 1341 3281 1617 3432 
Q 1894 3584 2278 3584 
Q 2916 3584 3314 3078 
Q 3713 2572 3713 1747 
Q 3713 922 3314 415 
Q 2916 -91 2278 -91 
Q 1894 -91 1617 61 
Q 1341 213 1159 525 
z
M 3116 1747 
Q 3116 2381 2855 2742 
Q 2594 3103 2138 3103 
Q 1681 3103 1420 2742 
Q 1159 2381 1159 1747 
Q 1159 1113 1420 752 
Q 1681 391 2138 391 
Q 2594 391 2855 752 
Q 3116 1113 3116 1747 
z
" transform="scale(0.015625)"/>
       <path id="DejaVuSans-6f" d="M 1959 3097 
Q 1497 3097 1228 2736 
Q 959 2375 959 1747 
Q 959 1119 1226 758 
Q 1494 397 1959 397 
Q 2419 397 2687 759 
Q 2956 1122 2956 1747 
Q 2956 2369 2687 2733 
Q 2419 3097 1959 3097 
z
M 1959 3584 
Q 2709 3584 3137 3096 
Q 3566 2609 3566 1747 
Q 3566 888 3137 398 
Q 2709 -91 1959 -91 
Q 1206 -91 779 398 
Q 353 888 353 1747 
Q 353 2609 779 3096 
Q 1206 3584 1959 3584 
z
" transform="scale(0.015625)"/>
       <path id="DejaVuSans-63" d="M 3122 3366 
L 3122 2828 
Q 2878 2963 2633 3030 
Q 2388 3097 2138 3097 
Q 1578 3097 1268 2742 
Q 959 2388 959 1747 
Q 959 1106 1268 751 
Q 1578 397 2138 397 
Q 2388 397 2633 464 
Q 2878 531 3122 666 
L 3122 134 
Q 2881 22 2623 -34 
Q 2366 -91 2075 -91 
Q 1284 -91 818 406 
Q 353 903 353 1747 
Q 353 2603 823 3093 
Q 1294 3584 2113 3584 
Q 2378 3584 2631 3529 
Q 2884 3475 3122 3366 
z
" transform="scale(0.015625)"/>
       <path id="DejaVuSans-68" d="M 3513 2113 
L 3513 0 
L 2938 0 
L 2938 2094 
Q 2938 2591 2744 2837 
Q 2550 3084 2163 3084 
Q 1697 3084 1428 2787 
Q 1159 2491 1159 1978 
L 1159 0 
L 581 0 
L 581 4863 
L 1159 4863 
L 1159 2956 
Q 1366 3272 1645 3428 
Q 1925 3584 2291 3584 
Q 2894 3584 3203 3211 
Q 3513 2838 3513 2113 
z
" transform="scale(0.015625)"/>
      </defs>
      <use xlink:href="#DejaVuSans-45"/>
      <use xlink:href="#DejaVuSans-70" transform="translate(63.183594 0)"/>
      <use xlink:href="#DejaVuSans-6f" transform="translate(126.660156 0)"/>
      <use xlink:href="#DejaVuSans-63" transform="translate(187.841797 0)"/>
      <use xlink:href="#DejaVuSans-68" transform="translate(242.822266 0)"/>
     </g>
    </g>
   </g>
   <g id="matplotlib.axis_2">
    <g id="ytick_1">
     <g id="line2d_19">
      <path d="M 44.57 411.842527 
L 816.28 411.842527 
" clip-path="url(#p9afd1998ec)" style="fill: none; stroke-dasharray: 2.96,1.28; stroke-dashoffset: 0; stroke: #b0b0b0; stroke-opacity: 0.3; stroke-width: 0.8"/>
     </g>
     <g id="line2d_20">
      <defs>
       <path id="ma5a3b6c052" d="M 0 0 
L -3.5 0 
" style="stroke: #000000; stroke-width: 0.8"/>
      </defs>
      <g>
       <use xlink:href="#ma5a3b6c052" x="44.57" y="411.842527" style="stroke: #000000; stroke-width: 0.8"/>
      </g>
     </g>
     <g id="text_11">
      <!-- 75 -->
      <g transform="translate(24.845 415.641746) scale(0.1 -0.1)">
       <defs>
        <path id="DejaVuSans-37" d="M 525 4666 
L 3525 4666 
L 3525 4397 
L 1831 0 
L 1172 0 
L 2766 4134 
L 525 4134 
L 525 4666 
z
" transform="scale(0.015625)"/>
       </defs>
       <use xlink:href="#DejaVuSans-37"/>
       <use xlink:href="#DejaVuSans-35" transform="translate(63.623047 0)"/>
      </g>
     </g>
    </g>
    <g id="ytick_2">
     <g id="line2d_21">
      <path d="M 44.57 319.838038 
L 816.28 319.838038 
" clip-path="url(#p9afd1998ec)" style="fill: none; stroke-dasharray: 2.96,1.28; stroke-dashoffset: 0; stroke: #b0b0b0; stroke-opacity: 0.3; stroke-width: 0.8"/>
     </g>
     <g id="line2d_22">
      <g>
       <use xlink:href="#ma5a3b6c052" x="44.57" y="319.838038" style="stroke: #000000; stroke-width: 0.8"/>
      </g>
     </g>
     <g id="text_12">
      <!-- 80 -->
      <g transform="translate(24.845 323.637257) scale(0.1 -0.1)">
       <defs>
        <path id="DejaVuSans-38" d="M 2034 2216 
Q 1584 2216 1326 1975 
Q 1069 1734 1069 1313 
Q 1069 891 1326 650 
Q 1584 409 2034 409 
Q 2484 409 2743 651 
Q 3003 894 3003 1313 
Q 3003 1734 2745 1975 
Q 2488 2216 2034 2216 
z
M 1403 2484 
Q 997 2584 770 2862 
Q 544 3141 544 3541 
Q 544 4100 942 4425 
Q 1341 4750 2034 4750 
Q 2731 4750 3128 4425 
Q 3525 4100 3525 3541 
Q 3525 3141 3298 2862 
Q 3072 2584 2669 2484 
Q 3125 2378 3379 2068 
Q 3634 1759 3634 1313 
Q 3634 634 3220 271 
Q 2806 -91 2034 -91 
Q 1263 -91 848 271 
Q 434 634 434 1313 
Q 434 1759 690 2068 
Q 947 2378 1403 2484 
z
M 1172 3481 
Q 1172 3119 1398 2916 
Q 1625 2713 2034 2713 
Q 2441 2713 2670 2916 
Q 2900 3119 2900 3481 
Q 2900 3844 2670 4047 
Q 2441 4250 2034 4250 
Q 1625 4250 1398 4047 
Q 1172 3844 1172 3481 
z
" transform="scale(0.015625)"/>
       </defs>
       <use xlink:href="#DejaVuSans-38"/>
       <use xlink:href="#DejaVuSans-30" transform="translate(63.623047 0)"/>
      </g>
     </g>
    </g>
    <g id="ytick_3">
     <g id="line2d_23">
      <path d="M 44.57 227.833549 
L 816.28 227.833549 
" clip-path="url(#p9afd1998ec)" style="fill: none; stroke-dasharray: 2.96,1.28; stroke-dashoffset: 0; stroke: #b0b0b0; stroke-opacity: 0.3; stroke-width: 0.8"/>
     </g>
     <g id="line2d_24">
      <g>
       <use xlink:href="#ma5a3b6c052" x="44.57" y="227.833549" style="stroke: #000000; stroke-width: 0.8"/>
      </g>
     </g>
     <g id="text_13">
      <!-- 85 -->
      <g transform="translate(24.845 231.632768) scale(0.1 -0.1)">
       <use xlink:href="#DejaVuSans-38"/>
       <use xlink:href="#DejaVuSans-35" transform="translate(63.623047 0)"/>
      </g>
     </g>
    </g>
    <g id="ytick_4">
     <g id="line2d_25">
      <path d="M 44.57 135.82906 
L 816.28 135.82906 
" clip-path="url(#p9afd1998ec)" style="fill: none; stroke-dasharray: 2.96,1.28; stroke-dashoffset: 0; stroke: #b0b0b0; stroke-opacity: 0.3; stroke-width: 0.8"/>
     </g>
     <g id="line2d_26">
      <g>
       <use xlink:href="#ma5a3b6c052" x="44.57" y="135.82906" style="stroke: #000000; stroke-width: 0.8"/>
      </g>
     </g>
     <g id="text_14">
      <!-- 90 -->
      <g transform="translate(24.845 139.628279) scale(0.1 -0.1)">
       <defs>
        <path id="DejaVuSans-39" d="M 703 97 
L 703 672 
Q 941 559 1184 500 
Q 1428 441 1663 441 
Q 2288 441 2617 861 
Q 2947 1281 2994 2138 
Q 2813 1869 2534 1725 
Q 2256 1581 1919 1581 
Q 1219 1581 811 2004 
Q 403 2428 403 3163 
Q 403 3881 828 4315 
Q 1253 4750 1959 4750 
Q 2769 4750 3195 4129 
Q 3622 3509 3622 2328 
Q 3622 1225 3098 567 
Q 2575 -91 1691 -91 
Q 1453 -91 1209 -44 
Q 966 3 703 97 
z
M 1959 2075 
Q 2384 2075 2632 2365 
Q 2881 2656 2881 3163 
Q 2881 3666 2632 3958 
Q 2384 4250 1959 4250 
Q 1534 4250 1286 3958 
Q 1038 3666 1038 3163 
Q 1038 2656 1286 2365 
Q 1534 2075 1959 2075 
z
" transform="scale(0.015625)"/>
       </defs>
       <use xlink:href="#DejaVuSans-39"/>
       <use xlink:href="#DejaVuSans-30" transform="translate(63.623047 0)"/>
      </g>
     </g>
    </g>
    <g id="ytick_5">
     <g id="line2d_27">
      <path d="M 44.57 43.824571 
L 816.28 43.824571 
" clip-path="url(#p9afd1998ec)" style="fill: none; stroke-dasharray: 2.96,1.28; stroke-dashoffset: 0; stroke: #b0b0b0; stroke-opacity: 0.3; stroke-width: 0.8"/>
     </g>
     <g id="line2d_28">
      <g>
       <use xlink:href="#ma5a3b6c052" x="44.57" y="43.824571" style="stroke: #000000; stroke-width: 0.8"/>
      </g>
     </g>
     <g id="text_15">
      <!-- 95 -->
      <g transform="translate(24.845 47.62379) scale(0.1 -0.1)">
       <use xlink:href="#DejaVuSans-39"/>
       <use xlink:href="#DejaVuSans-35" transform="translate(63.623047 0)"/>
      </g>
     </g>
    </g>
    <g id="text_16">
     <!-- Accuracy [%] -->
     <g transform="translate(18.765312 290.489531) rotate(-90) scale(0.1 -0.1)">
      <defs>
       <path id="DejaVuSans-41" d="M 2188 4044 
L 1331 1722 
L 3047 1722 
L 2188 4044 
z
M 1831 4666 
L 2547 4666 
L 4325 0 
L 3669 0 
L 3244 1197 
L 1141 1197 
L 716 0 
L 50 0 
L 1831 4666 
z
" transform="scale(0.015625)"/>
       <path id="DejaVuSans-75" d="M 544 1381 
L 544 3500 
L 1119 3500 
L 1119 1403 
Q 1119 906 1312 657 
Q 1506 409 1894 409 
Q 2359 409 2629 706 
Q 2900 1003 2900 1516 
L 2900 3500 
L 3475 3500 
L 3475 0 
L 2900 0 
L 2900 538 
Q 2691 219 2414 64 
Q 2138 -91 1772 -91 
Q 1169 -91 856 284 
Q 544 659 544 1381 
z
M 1991 3584 
L 1991 3584 
z
" transform="scale(0.015625)"/>
       <path id="DejaVuSans-72" d="M 2631 2963 
Q 2534 3019 2420 3045 
Q 2306 3072 2169 3072 
Q 1681 3072 1420 2755 
Q 1159 2438 1159 1844 
L 1159 0 
L 581 0 
L 581 3500 
L 1159 3500 
L 1159 2956 
Q 1341 3275 1631 3429 
Q 1922 3584 2338 3584 
Q 2397 3584 2469 3576 
Q 2541 3569 2628 3553 
L 2631 2963 
z
" transform="scale(0.015625)"/>
       <path id="DejaVuSans-61" d="M 2194 1759 
Q 1497 1759 1228 1600 
Q 959 1441 959 1056 
Q 959 750 1161 570 
Q 1363 391 1709 391 
Q 2188 391 2477 730 
Q 2766 1069 2766 1631 
L 2766 1759 
L 2194 1759 
z
M 3341 1997 
L 3341 0 
L 2766 0 
L 2766 531 
Q 2569 213 2275 61 
Q 1981 -91 1556 -91 
Q 1019 -91 701 211 
Q 384 513 384 1019 
Q 384 1609 779 1909 
Q 1175 2209 1959 2209 
L 2766 2209 
L 2766 2266 
Q 2766 2663 2505 2880 
Q 2244 3097 1772 3097 
Q 1472 3097 1187 3025 
Q 903 2953 641 2809 
L 641 3341 
Q 956 3463 1253 3523 
Q 1550 3584 1831 3584 
Q 2591 3584 2966 3190 
Q 3341 2797 3341 1997 
z
" transform="scale(0.015625)"/>
       <path id="DejaVuSans-79" d="M 2059 -325 
Q 1816 -950 1584 -1140 
Q 1353 -1331 966 -1331 
L 506 -1331 
L 506 -850 
L 844 -850 
Q 1081 -850 1212 -737 
Q 1344 -625 1503 -206 
L 1606 56 
L 191 3500 
L 800 3500 
L 1894 763 
L 2988 3500 
L 3597 3500 
L 2059 -325 
z
" transform="scale(0.015625)"/>
       <path id="DejaVuSans-20" transform="scale(0.015625)"/>
       <path id="DejaVuSans-5b" d="M 550 4863 
L 1875 4863 
L 1875 4416 
L 1125 4416 
L 1125 -397 
L 1875 -397 
L 1875 -844 
L 550 -844 
L 550 4863 
z
" transform="scale(0.015625)"/>
       <path id="DejaVuSans-25" d="M 4653 2053 
Q 4381 2053 4226 1822 
Q 4072 1591 4072 1178 
Q 4072 772 4226 539 
Q 4381 306 4653 306 
Q 4919 306 5073 539 
Q 5228 772 5228 1178 
Q 5228 1588 5073 1820 
Q 4919 2053 4653 2053 
z
M 4653 2450 
Q 5147 2450 5437 2106 
Q 5728 1763 5728 1178 
Q 5728 594 5436 251 
Q 5144 -91 4653 -91 
Q 4153 -91 3862 251 
Q 3572 594 3572 1178 
Q 3572 1766 3864 2108 
Q 4156 2450 4653 2450 
z
M 1428 4353 
Q 1159 4353 1004 4120 
Q 850 3888 850 3481 
Q 850 3069 1003 2837 
Q 1156 2606 1428 2606 
Q 1700 2606 1854 2837 
Q 2009 3069 2009 3481 
Q 2009 3884 1853 4118 
Q 1697 4353 1428 4353 
z
M 4250 4750 
L 4750 4750 
L 1831 -91 
L 1331 -91 
L 4250 4750 
z
M 1428 4750 
Q 1922 4750 2215 4408 
Q 2509 4066 2509 3481 
Q 2509 2891 2217 2550 
Q 1925 2209 1428 2209 
Q 931 2209 642 2551 
Q 353 2894 353 3481 
Q 353 4063 643 4406 
Q 934 4750 1428 4750 
z
" transform="scale(0.015625)"/>
       <path id="DejaVuSans-5d" d="M 1947 4863 
L 1947 -844 
L 622 -844 
L 622 -397 
L 1369 -397 
L 1369 4416 
L 622 4416 
L 622 4863 
L 1947 4863 
z
" transform="scale(0.015625)"/>
      </defs>
      <use xlink:href="#DejaVuSans-41"/>
      <use xlink:href="#DejaVuSans-63" transform="translate(66.658203 0)"/>
      <use xlink:href="#DejaVuSans-63" transform="translate(121.638672 0)"/>
      <use xlink:href="#DejaVuSans-75" transform="translate(176.619141 0)"/>
      <use xlink:href="#DejaVuSans-72" transform="translate(239.998047 0)"/>
      <use xlink:href="#DejaVuSans-61" transform="translate(281.111328 0)"/>
      <use xlink:href="#DejaVuSans-63" transform="translate(342.390625 0)"/>
      <use xlink:href="#DejaVuSans-79" transform="translate(397.371094 0)"/>
      <use xlink:href="#DejaVuSans-20" transform="translate(456.550781 0)"/>
      <use xlink:href="#DejaVuSans-5b" transform="translate(488.337891 0)"/>
      <use xlink:href="#DejaVuSans-25" transform="translate(527.351562 0)"/>
      <use xlink:href="#DejaVuSans-5d" transform="translate(622.371094 0)"/>
     </g>
    </g>
   </g>
   <g id="line2d_29">
    <path d="M 79.647727 451.158204 
L 97.186591 240.498021 
L 114.725455 177.924359 
L 132.264318 155.457465 
L 149.803182 136.97392 
L 167.342045 131.736835 
L 184.880909 118.729743 
L 202.419773 109.705924 
L 219.958636 106.891507 
L 237.4975 101.837946 
L 255.036364 92.774482 
L 272.575227 95.062933 
L 290.114091 97.719628 
L 307.652955 88.572579 
L 325.191818 83.067152 
L 342.730682 82.409475 
L 360.269545 82.401593 
L 377.808409 83.145551 
L 395.347273 76.086342 
L 412.886136 80.473037 
L 430.425 81.164456 
L 447.963864 77.803249 
L 465.502727 74.396238 
L 483.041591 69.966215 
L 500.580455 76.730647 
L 518.119318 75.801143 
L 535.658182 73.348623 
L 553.197045 72.231047 
L 570.735909 71.376784 
L 588.274773 69.425673 
L 605.813636 66.471867 
L 623.3525 64.957633 
L 640.891364 81.744929 
L 658.430227 67.702898 
L 675.969091 73.231725 
L 693.507955 66.567516 
L 711.046818 66.4763 
L 728.585682 74.469105 
L 746.124545 65.122878 
L 763.663409 63.681796 
L 781.202273 69.342786 
" clip-path="url(#p9afd1998ec)" style="fill: none; stroke-dasharray: 1.5,2.475; stroke-dashoffset: 0; stroke: #ff80ff; stroke-width: 1.5"/>
    <defs>
     <path id="mbf9fb0ec10" d="M 0 3 
C 0.795609 3 1.55874 2.683901 2.12132 2.12132 
C 2.683901 1.55874 3 0.795609 3 0 
C 3 -0.795609 2.683901 -1.55874 2.12132 -2.12132 
C 1.55874 -2.683901 0.795609 -3 0 -3 
C -0.795609 -3 -1.55874 -2.683901 -2.12132 -2.12132 
C -2.683901 -1.55874 -3 -0.795609 -3 0 
C -3 0.795609 -2.683901 1.55874 -2.12132 2.12132 
C -1.55874 2.683901 -0.795609 3 0 3 
z
" style="stroke: #ff80ff"/>
    </defs>
    <g clip-path="url(#p9afd1998ec)">
     <use xlink:href="#mbf9fb0ec10" x="79.647727" y="451.158204" style="fill: #ff80ff; stroke: #ff80ff"/>
     <use xlink:href="#mbf9fb0ec10" x="97.186591" y="240.498021" style="fill: #ff80ff; stroke: #ff80ff"/>
     <use xlink:href="#mbf9fb0ec10" x="114.725455" y="177.924359" style="fill: #ff80ff; stroke: #ff80ff"/>
     <use xlink:href="#mbf9fb0ec10" x="132.264318" y="155.457465" style="fill: #ff80ff; stroke: #ff80ff"/>
     <use xlink:href="#mbf9fb0ec10" x="149.803182" y="136.97392" style="fill: #ff80ff; stroke: #ff80ff"/>
     <use xlink:href="#mbf9fb0ec10" x="167.342045" y="131.736835" style="fill: #ff80ff; stroke: #ff80ff"/>
     <use xlink:href="#mbf9fb0ec10" x="184.880909" y="118.729743" style="fill: #ff80ff; stroke: #ff80ff"/>
     <use xlink:href="#mbf9fb0ec10" x="202.419773" y="109.705924" style="fill: #ff80ff; stroke: #ff80ff"/>
     <use xlink:href="#mbf9fb0ec10" x="219.958636" y="106.891507" style="fill: #ff80ff; stroke: #ff80ff"/>
     <use xlink:href="#mbf9fb0ec10" x="237.4975" y="101.837946" style="fill: #ff80ff; stroke: #ff80ff"/>
     <use xlink:href="#mbf9fb0ec10" x="255.036364" y="92.774482" style="fill: #ff80ff; stroke: #ff80ff"/>
     <use xlink:href="#mbf9fb0ec10" x="272.575227" y="95.062933" style="fill: #ff80ff; stroke: #ff80ff"/>
     <use xlink:href="#mbf9fb0ec10" x="290.114091" y="97.719628" style="fill: #ff80ff; stroke: #ff80ff"/>
     <use xlink:href="#mbf9fb0ec10" x="307.652955" y="88.572579" style="fill: #ff80ff; stroke: #ff80ff"/>
     <use xlink:href="#mbf9fb0ec10" x="325.191818" y="83.067152" style="fill: #ff80ff; stroke: #ff80ff"/>
     <use xlink:href="#mbf9fb0ec10" x="342.730682" y="82.409475" style="fill: #ff80ff; stroke: #ff80ff"/>
     <use xlink:href="#mbf9fb0ec10" x="360.269545" y="82.401593" style="fill: #ff80ff; stroke: #ff80ff"/>
     <use xlink:href="#mbf9fb0ec10" x="377.808409" y="83.145551" style="fill: #ff80ff; stroke: #ff80ff"/>
     <use xlink:href="#mbf9fb0ec10" x="395.347273" y="76.086342" style="fill: #ff80ff; stroke: #ff80ff"/>
     <use xlink:href="#mbf9fb0ec10" x="412.886136" y="80.473037" style="fill: #ff80ff; stroke: #ff80ff"/>
     <use xlink:href="#mbf9fb0ec10" x="430.425" y="81.164456" style="fill: #ff80ff; stroke: #ff80ff"/>
     <use xlink:href="#mbf9fb0ec10" x="447.963864" y="77.803249" style="fill: #ff80ff; stroke: #ff80ff"/>
     <use xlink:href="#mbf9fb0ec10" x="465.502727" y="74.396238" style="fill: #ff80ff; stroke: #ff80ff"/>
     <use xlink:href="#mbf9fb0ec10" x="483.041591" y="69.966215" style="fill: #ff80ff; stroke: #ff80ff"/>
     <use xlink:href="#mbf9fb0ec10" x="500.580455" y="76.730647" style="fill: #ff80ff; stroke: #ff80ff"/>
     <use xlink:href="#mbf9fb0ec10" x="518.119318" y="75.801143" style="fill: #ff80ff; stroke: #ff80ff"/>
     <use xlink:href="#mbf9fb0ec10" x="535.658182" y="73.348623" style="fill: #ff80ff; stroke: #ff80ff"/>
     <use xlink:href="#mbf9fb0ec10" x="553.197045" y="72.231047" style="fill: #ff80ff; stroke: #ff80ff"/>
     <use xlink:href="#mbf9fb0ec10" x="570.735909" y="71.376784" style="fill: #ff80ff; stroke: #ff80ff"/>
     <use xlink:href="#mbf9fb0ec10" x="588.274773" y="69.425673" style="fill: #ff80ff; stroke: #ff80ff"/>
     <use xlink:href="#mbf9fb0ec10" x="605.813636" y="66.471867" style="fill: #ff80ff; stroke: #ff80ff"/>
     <use xlink:href="#mbf9fb0ec10" x="623.3525" y="64.957633" style="fill: #ff80ff; stroke: #ff80ff"/>
     <use xlink:href="#mbf9fb0ec10" x="640.891364" y="81.744929" style="fill: #ff80ff; stroke: #ff80ff"/>
     <use xlink:href="#mbf9fb0ec10" x="658.430227" y="67.702898" style="fill: #ff80ff; stroke: #ff80ff"/>
     <use xlink:href="#mbf9fb0ec10" x="675.969091" y="73.231725" style="fill: #ff80ff; stroke: #ff80ff"/>
     <use xlink:href="#mbf9fb0ec10" x="693.507955" y="66.567516" style="fill: #ff80ff; stroke: #ff80ff"/>
     <use xlink:href="#mbf9fb0ec10" x="711.046818" y="66.4763" style="fill: #ff80ff; stroke: #ff80ff"/>
     <use xlink:href="#mbf9fb0ec10" x="728.585682" y="74.469105" style="fill: #ff80ff; stroke: #ff80ff"/>
     <use xlink:href="#mbf9fb0ec10" x="746.124545" y="65.122878" style="fill: #ff80ff; stroke: #ff80ff"/>
     <use xlink:href="#mbf9fb0ec10" x="763.663409" y="63.681796" style="fill: #ff80ff; stroke: #ff80ff"/>
     <use xlink:href="#mbf9fb0ec10" x="781.202273" y="69.342786" style="fill: #ff80ff; stroke: #ff80ff"/>
    </g>
   </g>
   <g id="line2d_30">
    <path d="M 79.647727 325.271814 
L 97.186591 194.213352 
L 114.725455 174.088082 
L 132.264318 152.361334 
L 149.803182 166.97931 
L 167.342045 157.020107 
L 184.880909 130.803932 
L 202.419773 182.662407 
L 219.958636 134.686105 
L 237.4975 160.408234 
L 255.036364 125.493465 
L 272.575227 125.530817 
L 290.114091 110.863072 
L 307.652955 107.412365 
L 325.191818 133.404679 
L 342.730682 116.390482 
L 360.269545 113.609619 
L 377.808409 107.650665 
L 395.347273 94.285172 
L 412.886136 100.151589 
L 430.425 107.910058 
L 447.963864 100.626901 
L 465.502727 98.497296 
L 483.041591 98.876543 
L 500.580455 103.125406 
L 518.119318 103.165202 
L 535.658182 99.485426 
L 553.197045 92.945684 
L 570.735909 95.558941 
L 588.274773 95.145096 
L 605.813636 86.073908 
L 623.3525 108.178064 
L 640.891364 95.085506 
L 658.430227 92.355176 
L 675.969091 100.971074 
L 693.507955 95.064761 
L 711.046818 394.033583 
L 728.585682 96.011655 
L 746.124545 91.616381 
L 763.663409 90.420999 
L 781.202273 86.658831 
" clip-path="url(#p9afd1998ec)" style="fill: none; stroke-dasharray: 9.6,2.4,1.5,2.4; stroke-dashoffset: 0; stroke: #46cc33; stroke-width: 1.5"/>
    <defs>
     <path id="m2a74b2bd79" d="M -3 3 
L 3 -3 
M -3 -3 
L 3 3 
" style="stroke: #46cc33"/>
    </defs>
    <g clip-path="url(#p9afd1998ec)">
     <use xlink:href="#m2a74b2bd79" x="79.647727" y="325.271814" style="fill: #46cc33; stroke: #46cc33"/>
     <use xlink:href="#m2a74b2bd79" x="97.186591" y="194.213352" style="fill: #46cc33; stroke: #46cc33"/>
     <use xlink:href="#m2a74b2bd79" x="114.725455" y="174.088082" style="fill: #46cc33; stroke: #46cc33"/>
     <use xlink:href="#m2a74b2bd79" x="132.264318" y="152.361334" style="fill: #46cc33; stroke: #46cc33"/>
     <use xlink:href="#m2a74b2bd79" x="149.803182" y="166.97931" style="fill: #46cc33; stroke: #46cc33"/>
     <use xlink:href="#m2a74b2bd79" x="167.342045" y="157.020107" style="fill: #46cc33; stroke: #46cc33"/>
     <use xlink:href="#m2a74b2bd79" x="184.880909" y="130.803932" style="fill: #46cc33; stroke: #46cc33"/>
     <use xlink:href="#m2a74b2bd79" x="202.419773" y="182.662407" style="fill: #46cc33; stroke: #46cc33"/>
     <use xlink:href="#m2a74b2bd79" x="219.958636" y="134.686105" style="fill: #46cc33; stroke: #46cc33"/>
     <use xlink:href="#m2a74b2bd79" x="237.4975" y="160.408234" style="fill: #46cc33; stroke: #46cc33"/>
     <use xlink:href="#m2a74b2bd79" x="255.036364" y="125.493465" style="fill: #46cc33; stroke: #46cc33"/>
     <use xlink:href="#m2a74b2bd79" x="272.575227" y="125.530817" style="fill: #46cc33; stroke: #46cc33"/>
     <use xlink:href="#m2a74b2bd79" x="290.114091" y="110.863072" style="fill: #46cc33; stroke: #46cc33"/>
     <use xlink:href="#m2a74b2bd79" x="307.652955" y="107.412365" style="fill: #46cc33; stroke: #46cc33"/>
     <use xlink:href="#m2a74b2bd79" x="325.191818" y="133.404679" style="fill: #46cc33; stroke: #46cc33"/>
     <use xlink:href="#m2a74b2bd79" x="342.730682" y="116.390482" style="fill: #46cc33; stroke: #46cc33"/>
     <use xlink:href="#m2a74b2bd79" x="360.269545" y="113.609619" style="fill: #46cc33; stroke: #46cc33"/>
     <use xlink:href="#m2a74b2bd79" x="377.808409" y="107.650665" style="fill: #46cc33; stroke: #46cc33"/>
     <use xlink:href="#m2a74b2bd79" x="395.347273" y="94.285172" style="fill: #46cc33; stroke: #46cc33"/>
     <use xlink:href="#m2a74b2bd79" x="412.886136" y="100.151589" style="fill: #46cc33; stroke: #46cc33"/>
     <use xlink:href="#m2a74b2bd79" x="430.425" y="107.910058" style="fill: #46cc33; stroke: #46cc33"/>
     <use xlink:href="#m2a74b2bd79" x="447.963864" y="100.626901" style="fill: #46cc33; stroke: #46cc33"/>
     <use xlink:href="#m2a74b2bd79" x="465.502727" y="98.497296" style="fill: #46cc33; stroke: #46cc33"/>
     <use xlink:href="#m2a74b2bd79" x="483.041591" y="98.876543" style="fill: #46cc33; stroke: #46cc33"/>
     <use xlink:href="#m2a74b2bd79" x="500.580455" y="103.125406" style="fill: #46cc33; stroke: #46cc33"/>
     <use xlink:href="#m2a74b2bd79" x="518.119318" y="103.165202" style="fill: #46cc33; stroke: #46cc33"/>
     <use xlink:href="#m2a74b2bd79" x="535.658182" y="99.485426" style="fill: #46cc33; stroke: #46cc33"/>
     <use xlink:href="#m2a74b2bd79" x="553.197045" y="92.945684" style="fill: #46cc33; stroke: #46cc33"/>
     <use xlink:href="#m2a74b2bd79" x="570.735909" y="95.558941" style="fill: #46cc33; stroke: #46cc33"/>
     <use xlink:href="#m2a74b2bd79" x="588.274773" y="95.145096" style="fill: #46cc33; stroke: #46cc33"/>
     <use xlink:href="#m2a74b2bd79" x="605.813636" y="86.073908" style="fill: #46cc33; stroke: #46cc33"/>
     <use xlink:href="#m2a74b2bd79" x="623.3525" y="108.178064" style="fill: #46cc33; stroke: #46cc33"/>
     <use xlink:href="#m2a74b2bd79" x="640.891364" y="95.085506" style="fill: #46cc33; stroke: #46cc33"/>
     <use xlink:href="#m2a74b2bd79" x="658.430227" y="92.355176" style="fill: #46cc33; stroke: #46cc33"/>
     <use xlink:href="#m2a74b2bd79" x="675.969091" y="100.971074" style="fill: #46cc33; stroke: #46cc33"/>
     <use xlink:href="#m2a74b2bd79" x="693.507955" y="95.064761" style="fill: #46cc33; stroke: #46cc33"/>
     <use xlink:href="#m2a74b2bd79" x="711.046818" y="394.033583" style="fill: #46cc33; stroke: #46cc33"/>
     <use xlink:href="#m2a74b2bd79" x="728.585682" y="96.011655" style="fill: #46cc33; stroke: #46cc33"/>
     <use xlink:href="#m2a74b2bd79" x="746.124545" y="91.616381" style="fill: #46cc33; stroke: #46cc33"/>
     <use xlink:href="#m2a74b2bd79" x="763.663409" y="90.420999" style="fill: #46cc33; stroke: #46cc33"/>
     <use xlink:href="#m2a74b2bd79" x="781.202273" y="86.658831" style="fill: #46cc33; stroke: #46cc33"/>
    </g>
   </g>
   <g id="patch_3">
    <path d="M 44.57 487.96 
L 44.57 26.88 
" style="fill: none; stroke: #000000; stroke-width: 0.8; stroke-linejoin: miter; stroke-linecap: square"/>
   </g>
   <g id="patch_4">
    <path d="M 816.28 487.96 
L 816.28 26.88 
" style="fill: none; stroke: #000000; stroke-width: 0.8; stroke-linejoin: miter; stroke-linecap: square"/>
   </g>
   <g id="patch_5">
    <path d="M 44.57 487.96 
L 816.28 487.96 
" style="fill: none; stroke: #000000; stroke-width: 0.8; stroke-linejoin: miter; stroke-linecap: square"/>
   </g>
   <g id="patch_6">
    <path d="M 44.57 26.88 
L 816.28 26.88 
" style="fill: none; stroke: #000000; stroke-width: 0.8; stroke-linejoin: miter; stroke-linecap: square"/>
   </g>
   <g id="text_17">
    <!-- DDRNet-23 Loss and Accuracy Graph - Loss and Accuracy -->
    <g transform="translate(257.174062 20.88) scale(0.12 -0.12)">
     <defs>
      <path id="DejaVuSans-44" d="M 1259 4147 
L 1259 519 
L 2022 519 
Q 2988 519 3436 956 
Q 3884 1394 3884 2338 
Q 3884 3275 3436 3711 
Q 2988 4147 2022 4147 
L 1259 4147 
z
M 628 4666 
L 1925 4666 
Q 3281 4666 3915 4102 
Q 4550 3538 4550 2338 
Q 4550 1131 3912 565 
Q 3275 0 1925 0 
L 628 0 
L 628 4666 
z
" transform="scale(0.015625)"/>
      <path id="DejaVuSans-52" d="M 2841 2188 
Q 3044 2119 3236 1894 
Q 3428 1669 3622 1275 
L 4263 0 
L 3584 0 
L 2988 1197 
Q 2756 1666 2539 1819 
Q 2322 1972 1947 1972 
L 1259 1972 
L 1259 0 
L 628 0 
L 628 4666 
L 2053 4666 
Q 2853 4666 3247 4331 
Q 3641 3997 3641 3322 
Q 3641 2881 3436 2590 
Q 3231 2300 2841 2188 
z
M 1259 4147 
L 1259 2491 
L 2053 2491 
Q 2509 2491 2742 2702 
Q 2975 2913 2975 3322 
Q 2975 3731 2742 3939 
Q 2509 4147 2053 4147 
L 1259 4147 
z
" transform="scale(0.015625)"/>
      <path id="DejaVuSans-4e" d="M 628 4666 
L 1478 4666 
L 3547 763 
L 3547 4666 
L 4159 4666 
L 4159 0 
L 3309 0 
L 1241 3903 
L 1241 0 
L 628 0 
L 628 4666 
z
" transform="scale(0.015625)"/>
      <path id="DejaVuSans-65" d="M 3597 1894 
L 3597 1613 
L 953 1613 
Q 991 1019 1311 708 
Q 1631 397 2203 397 
Q 2534 397 2845 478 
Q 3156 559 3463 722 
L 3463 178 
Q 3153 47 2828 -22 
Q 2503 -91 2169 -91 
Q 1331 -91 842 396 
Q 353 884 353 1716 
Q 353 2575 817 3079 
Q 1281 3584 2069 3584 
Q 2775 3584 3186 3129 
Q 3597 2675 3597 1894 
z
M 3022 2063 
Q 3016 2534 2758 2815 
Q 2500 3097 2075 3097 
Q 1594 3097 1305 2825 
Q 1016 2553 972 2059 
L 3022 2063 
z
" transform="scale(0.015625)"/>
      <path id="DejaVuSans-74" d="M 1172 4494 
L 1172 3500 
L 2356 3500 
L 2356 3053 
L 1172 3053 
L 1172 1153 
Q 1172 725 1289 603 
Q 1406 481 1766 481 
L 2356 481 
L 2356 0 
L 1766 0 
Q 1100 0 847 248 
Q 594 497 594 1153 
L 594 3053 
L 172 3053 
L 172 3500 
L 594 3500 
L 594 4494 
L 1172 4494 
z
" transform="scale(0.015625)"/>
      <path id="DejaVuSans-2d" d="M 313 2009 
L 1997 2009 
L 1997 1497 
L 313 1497 
L 313 2009 
z
" transform="scale(0.015625)"/>
      <path id="DejaVuSans-4c" d="M 628 4666 
L 1259 4666 
L 1259 531 
L 3531 531 
L 3531 0 
L 628 0 
L 628 4666 
z
" transform="scale(0.015625)"/>
      <path id="DejaVuSans-73" d="M 2834 3397 
L 2834 2853 
Q 2591 2978 2328 3040 
Q 2066 3103 1784 3103 
Q 1356 3103 1142 2972 
Q 928 2841 928 2578 
Q 928 2378 1081 2264 
Q 1234 2150 1697 2047 
L 1894 2003 
Q 2506 1872 2764 1633 
Q 3022 1394 3022 966 
Q 3022 478 2636 193 
Q 2250 -91 1575 -91 
Q 1294 -91 989 -36 
Q 684 19 347 128 
L 347 722 
Q 666 556 975 473 
Q 1284 391 1588 391 
Q 1994 391 2212 530 
Q 2431 669 2431 922 
Q 2431 1156 2273 1281 
Q 2116 1406 1581 1522 
L 1381 1569 
Q 847 1681 609 1914 
Q 372 2147 372 2553 
Q 372 3047 722 3315 
Q 1072 3584 1716 3584 
Q 2034 3584 2315 3537 
Q 2597 3491 2834 3397 
z
" transform="scale(0.015625)"/>
      <path id="DejaVuSans-6e" d="M 3513 2113 
L 3513 0 
L 2938 0 
L 2938 2094 
Q 2938 2591 2744 2837 
Q 2550 3084 2163 3084 
Q 1697 3084 1428 2787 
Q 1159 2491 1159 1978 
L 1159 0 
L 581 0 
L 581 3500 
L 1159 3500 
L 1159 2956 
Q 1366 3272 1645 3428 
Q 1925 3584 2291 3584 
Q 2894 3584 3203 3211 
Q 3513 2838 3513 2113 
z
" transform="scale(0.015625)"/>
      <path id="DejaVuSans-64" d="M 2906 2969 
L 2906 4863 
L 3481 4863 
L 3481 0 
L 2906 0 
L 2906 525 
Q 2725 213 2448 61 
Q 2172 -91 1784 -91 
Q 1150 -91 751 415 
Q 353 922 353 1747 
Q 353 2572 751 3078 
Q 1150 3584 1784 3584 
Q 2172 3584 2448 3432 
Q 2725 3281 2906 2969 
z
M 947 1747 
Q 947 1113 1208 752 
Q 1469 391 1925 391 
Q 2381 391 2643 752 
Q 2906 1113 2906 1747 
Q 2906 2381 2643 2742 
Q 2381 3103 1925 3103 
Q 1469 3103 1208 2742 
Q 947 2381 947 1747 
z
" transform="scale(0.015625)"/>
      <path id="DejaVuSans-47" d="M 3809 666 
L 3809 1919 
L 2778 1919 
L 2778 2438 
L 4434 2438 
L 4434 434 
Q 4069 175 3628 42 
Q 3188 -91 2688 -91 
Q 1594 -91 976 548 
Q 359 1188 359 2328 
Q 359 3472 976 4111 
Q 1594 4750 2688 4750 
Q 3144 4750 3555 4637 
Q 3966 4525 4313 4306 
L 4313 3634 
Q 3963 3931 3569 4081 
Q 3175 4231 2741 4231 
Q 1884 4231 1454 3753 
Q 1025 3275 1025 2328 
Q 1025 1384 1454 906 
Q 1884 428 2741 428 
Q 3075 428 3337 486 
Q 3600 544 3809 666 
z
" transform="scale(0.015625)"/>
     </defs>
     <use xlink:href="#DejaVuSans-44"/>
     <use xlink:href="#DejaVuSans-44" transform="translate(77.001953 0)"/>
     <use xlink:href="#DejaVuSans-52" transform="translate(154.003906 0)"/>
     <use xlink:href="#DejaVuSans-4e" transform="translate(223.486328 0)"/>
     <use xlink:href="#DejaVuSans-65" transform="translate(298.291016 0)"/>
     <use xlink:href="#DejaVuSans-74" transform="translate(359.814453 0)"/>
     <use xlink:href="#DejaVuSans-2d" transform="translate(399.023438 0)"/>
     <use xlink:href="#DejaVuSans-32" transform="translate(435.107422 0)"/>
     <use xlink:href="#DejaVuSans-33" transform="translate(498.730469 0)"/>
     <use xlink:href="#DejaVuSans-20" transform="translate(562.353516 0)"/>
     <use xlink:href="#DejaVuSans-4c" transform="translate(594.140625 0)"/>
     <use xlink:href="#DejaVuSans-6f" transform="translate(648.103516 0)"/>
     <use xlink:href="#DejaVuSans-73" transform="translate(709.285156 0)"/>
     <use xlink:href="#DejaVuSans-73" transform="translate(761.384766 0)"/>
     <use xlink:href="#DejaVuSans-20" transform="translate(813.484375 0)"/>
     <use xlink:href="#DejaVuSans-61" transform="translate(845.271484 0)"/>
     <use xlink:href="#DejaVuSans-6e" transform="translate(906.550781 0)"/>
     <use xlink:href="#DejaVuSans-64" transform="translate(969.929688 0)"/>
     <use xlink:href="#DejaVuSans-20" transform="translate(1033.40625 0)"/>
     <use xlink:href="#DejaVuSans-41" transform="translate(1065.193359 0)"/>
     <use xlink:href="#DejaVuSans-63" transform="translate(1131.851562 0)"/>
     <use xlink:href="#DejaVuSans-63" transform="translate(1186.832031 0)"/>
     <use xlink:href="#DejaVuSans-75" transform="translate(1241.8125 0)"/>
     <use xlink:href="#DejaVuSans-72" transform="translate(1305.191406 0)"/>
     <use xlink:href="#DejaVuSans-61" transform="translate(1346.304688 0)"/>
     <use xlink:href="#DejaVuSans-63" transform="translate(1407.583984 0)"/>
     <use xlink:href="#DejaVuSans-79" transform="translate(1462.564453 0)"/>
     <use xlink:href="#DejaVuSans-20" transform="translate(1521.744141 0)"/>
     <use xlink:href="#DejaVuSans-47" transform="translate(1553.53125 0)"/>
     <use xlink:href="#DejaVuSans-72" transform="translate(1631.021484 0)"/>
     <use xlink:href="#DejaVuSans-61" transform="translate(1672.134766 0)"/>
     <use xlink:href="#DejaVuSans-70" transform="translate(1733.414062 0)"/>
     <use xlink:href="#DejaVuSans-68" transform="translate(1796.890625 0)"/>
     <use xlink:href="#DejaVuSans-20" transform="translate(1860.269531 0)"/>
     <use xlink:href="#DejaVuSans-2d" transform="translate(1892.056641 0)"/>
     <use xlink:href="#DejaVuSans-20" transform="translate(1928.140625 0)"/>
     <use xlink:href="#DejaVuSans-4c" transform="translate(1959.927734 0)"/>
     <use xlink:href="#DejaVuSans-6f" transform="translate(2013.890625 0)"/>
     <use xlink:href="#DejaVuSans-73" transform="translate(2075.072266 0)"/>
     <use xlink:href="#DejaVuSans-73" transform="translate(2127.171875 0)"/>
     <use xlink:href="#DejaVuSans-20" transform="translate(2179.271484 0)"/>
     <use xlink:href="#DejaVuSans-61" transform="translate(2211.058594 0)"/>
     <use xlink:href="#DejaVuSans-6e" transform="translate(2272.337891 0)"/>
     <use xlink:href="#DejaVuSans-64" transform="translate(2335.716797 0)"/>
     <use xlink:href="#DejaVuSans-20" transform="translate(2399.193359 0)"/>
     <use xlink:href="#DejaVuSans-41" transform="translate(2430.980469 0)"/>
     <use xlink:href="#DejaVuSans-63" transform="translate(2497.638672 0)"/>
     <use xlink:href="#DejaVuSans-63" transform="translate(2552.619141 0)"/>
     <use xlink:href="#DejaVuSans-75" transform="translate(2607.599609 0)"/>
     <use xlink:href="#DejaVuSans-72" transform="translate(2670.978516 0)"/>
     <use xlink:href="#DejaVuSans-61" transform="translate(2712.091797 0)"/>
     <use xlink:href="#DejaVuSans-63" transform="translate(2773.371094 0)"/>
     <use xlink:href="#DejaVuSans-79" transform="translate(2828.351562 0)"/>
    </g>
   </g>
  </g>
  <g id="axes_2">
   <g id="matplotlib.axis_3">
    <g id="ytick_6">
     <g id="line2d_31">
      <defs>
       <path id="m9d04f28170" d="M 0 0 
L 3.5 0 
" style="stroke: #000000; stroke-width: 0.8"/>
      </defs>
      <g>
       <use xlink:href="#m9d04f28170" x="816.28" y="456.053949" style="stroke: #000000; stroke-width: 0.8"/>
      </g>
     </g>
     <g id="text_18">
      <!-- 0.2 -->
      <g transform="translate(823.28 459.853168) scale(0.1 -0.1)">
       <defs>
        <path id="DejaVuSans-2e" d="M 684 794 
L 1344 794 
L 1344 0 
L 684 0 
L 684 794 
z
" transform="scale(0.015625)"/>
       </defs>
       <use xlink:href="#DejaVuSans-30"/>
       <use xlink:href="#DejaVuSans-2e" transform="translate(63.623047 0)"/>
       <use xlink:href="#DejaVuSans-32" transform="translate(95.410156 0)"/>
      </g>
     </g>
    </g>
    <g id="ytick_7">
     <g id="line2d_32">
      <g>
       <use xlink:href="#m9d04f28170" x="816.28" y="366.052707" style="stroke: #000000; stroke-width: 0.8"/>
      </g>
     </g>
     <g id="text_19">
      <!-- 0.4 -->
      <g transform="translate(823.28 369.851926) scale(0.1 -0.1)">
       <use xlink:href="#DejaVuSans-30"/>
       <use xlink:href="#DejaVuSans-2e" transform="translate(63.623047 0)"/>
       <use xlink:href="#DejaVuSans-34" transform="translate(95.410156 0)"/>
      </g>
     </g>
    </g>
    <g id="ytick_8">
     <g id="line2d_33">
      <g>
       <use xlink:href="#m9d04f28170" x="816.28" y="276.051465" style="stroke: #000000; stroke-width: 0.8"/>
      </g>
     </g>
     <g id="text_20">
      <!-- 0.6 -->
      <g transform="translate(823.28 279.850683) scale(0.1 -0.1)">
       <defs>
        <path id="DejaVuSans-36" d="M 2113 2584 
Q 1688 2584 1439 2293 
Q 1191 2003 1191 1497 
Q 1191 994 1439 701 
Q 1688 409 2113 409 
Q 2538 409 2786 701 
Q 3034 994 3034 1497 
Q 3034 2003 2786 2293 
Q 2538 2584 2113 2584 
z
M 3366 4563 
L 3366 3988 
Q 3128 4100 2886 4159 
Q 2644 4219 2406 4219 
Q 1781 4219 1451 3797 
Q 1122 3375 1075 2522 
Q 1259 2794 1537 2939 
Q 1816 3084 2150 3084 
Q 2853 3084 3261 2657 
Q 3669 2231 3669 1497 
Q 3669 778 3244 343 
Q 2819 -91 2113 -91 
Q 1303 -91 875 529 
Q 447 1150 447 2328 
Q 447 3434 972 4092 
Q 1497 4750 2381 4750 
Q 2619 4750 2861 4703 
Q 3103 4656 3366 4563 
z
" transform="scale(0.015625)"/>
       </defs>
       <use xlink:href="#DejaVuSans-30"/>
       <use xlink:href="#DejaVuSans-2e" transform="translate(63.623047 0)"/>
       <use xlink:href="#DejaVuSans-36" transform="translate(95.410156 0)"/>
      </g>
     </g>
    </g>
    <g id="ytick_9">
     <g id="line2d_34">
      <g>
       <use xlink:href="#m9d04f28170" x="816.28" y="186.050222" style="stroke: #000000; stroke-width: 0.8"/>
      </g>
     </g>
     <g id="text_21">
      <!-- 0.8 -->
      <g transform="translate(823.28 189.849441) scale(0.1 -0.1)">
       <use xlink:href="#DejaVuSans-30"/>
       <use xlink:href="#DejaVuSans-2e" transform="translate(63.623047 0)"/>
       <use xlink:href="#DejaVuSans-38" transform="translate(95.410156 0)"/>
      </g>
     </g>
    </g>
    <g id="ytick_10">
     <g id="line2d_35">
      <g>
       <use xlink:href="#m9d04f28170" x="816.28" y="96.04898" style="stroke: #000000; stroke-width: 0.8"/>
      </g>
     </g>
     <g id="text_22">
      <!-- 1.0 -->
      <g transform="translate(823.28 99.848199) scale(0.1 -0.1)">
       <use xlink:href="#DejaVuSans-31"/>
       <use xlink:href="#DejaVuSans-2e" transform="translate(63.623047 0)"/>
       <use xlink:href="#DejaVuSans-30" transform="translate(95.410156 0)"/>
      </g>
     </g>
    </g>
    <g id="text_23">
     <!-- Loss -->
     <g transform="translate(850.781563 268.387187) rotate(-90) scale(0.1 -0.1)">
      <use xlink:href="#DejaVuSans-4c"/>
      <use xlink:href="#DejaVuSans-6f" transform="translate(53.962891 0)"/>
      <use xlink:href="#DejaVuSans-73" transform="translate(115.144531 0)"/>
      <use xlink:href="#DejaVuSans-73" transform="translate(167.244141 0)"/>
     </g>
    </g>
   </g>
   <g id="line2d_36">
    <path d="M 79.647727 181.713901 
L 97.186591 355.97524 
L 114.725455 394.208749 
L 132.264318 410.18825 
L 149.803182 422.501786 
L 167.342045 428.320667 
L 184.880909 435.998259 
L 202.419773 443.029979 
L 219.958636 445.66005 
L 237.4975 450.806445 
L 255.036364 456.231822 
L 272.575227 454.491324 
L 290.114091 454.510652 
L 307.652955 460.128926 
L 325.191818 464.40543 
L 342.730682 464.311646 
L 360.269545 465.340794 
L 377.808409 464.043356 
L 395.347273 469.838996 
L 412.886136 466.16045 
L 430.425 465.199475 
L 447.963864 468.159987 
L 465.502727 470.504395 
L 483.041591 474.49253 
L 500.580455 469.032068 
L 518.119318 469.756267 
L 535.658182 471.933321 
L 553.197045 472.542153 
L 570.735909 472.539291 
L 588.274773 474.489912 
L 605.813636 476.67713 
L 623.3525 478.424877 
L 640.891364 465.076907 
L 658.430227 475.697019 
L 675.969091 471.740708 
L 693.507955 476.52674 
L 711.046818 476.847947 
L 728.585682 470.879452 
L 746.124545 477.642431 
L 763.663409 478.959876 
L 781.202273 473.875207 
" clip-path="url(#p9afd1998ec)" style="fill: none; stroke-dasharray: 5.55,2.4; stroke-dashoffset: 0; stroke: #3f48cc; stroke-width: 1.5"/>
    <defs>
     <path id="me4bb68d356" d="M 0 -3 
L -3 3 
L 3 3 
z
" style="stroke: #3f48cc; stroke-linejoin: miter"/>
    </defs>
    <g clip-path="url(#p9afd1998ec)">
     <use xlink:href="#me4bb68d356" x="79.647727" y="181.713901" style="fill: #3f48cc; stroke: #3f48cc; stroke-linejoin: miter"/>
     <use xlink:href="#me4bb68d356" x="97.186591" y="355.97524" style="fill: #3f48cc; stroke: #3f48cc; stroke-linejoin: miter"/>
     <use xlink:href="#me4bb68d356" x="114.725455" y="394.208749" style="fill: #3f48cc; stroke: #3f48cc; stroke-linejoin: miter"/>
     <use xlink:href="#me4bb68d356" x="132.264318" y="410.18825" style="fill: #3f48cc; stroke: #3f48cc; stroke-linejoin: miter"/>
     <use xlink:href="#me4bb68d356" x="149.803182" y="422.501786" style="fill: #3f48cc; stroke: #3f48cc; stroke-linejoin: miter"/>
     <use xlink:href="#me4bb68d356" x="167.342045" y="428.320667" style="fill: #3f48cc; stroke: #3f48cc; stroke-linejoin: miter"/>
     <use xlink:href="#me4bb68d356" x="184.880909" y="435.998259" style="fill: #3f48cc; stroke: #3f48cc; stroke-linejoin: miter"/>
     <use xlink:href="#me4bb68d356" x="202.419773" y="443.029979" style="fill: #3f48cc; stroke: #3f48cc; stroke-linejoin: miter"/>
     <use xlink:href="#me4bb68d356" x="219.958636" y="445.66005" style="fill: #3f48cc; stroke: #3f48cc; stroke-linejoin: miter"/>
     <use xlink:href="#me4bb68d356" x="237.4975" y="450.806445" style="fill: #3f48cc; stroke: #3f48cc; stroke-linejoin: miter"/>
     <use xlink:href="#me4bb68d356" x="255.036364" y="456.231822" style="fill: #3f48cc; stroke: #3f48cc; stroke-linejoin: miter"/>
     <use xlink:href="#me4bb68d356" x="272.575227" y="454.491324" style="fill: #3f48cc; stroke: #3f48cc; stroke-linejoin: miter"/>
     <use xlink:href="#me4bb68d356" x="290.114091" y="454.510652" style="fill: #3f48cc; stroke: #3f48cc; stroke-linejoin: miter"/>
     <use xlink:href="#me4bb68d356" x="307.652955" y="460.128926" style="fill: #3f48cc; stroke: #3f48cc; stroke-linejoin: miter"/>
     <use xlink:href="#me4bb68d356" x="325.191818" y="464.40543" style="fill: #3f48cc; stroke: #3f48cc; stroke-linejoin: miter"/>
     <use xlink:href="#me4bb68d356" x="342.730682" y="464.311646" style="fill: #3f48cc; stroke: #3f48cc; stroke-linejoin: miter"/>
     <use xlink:href="#me4bb68d356" x="360.269545" y="465.340794" style="fill: #3f48cc; stroke: #3f48cc; stroke-linejoin: miter"/>
     <use xlink:href="#me4bb68d356" x="377.808409" y="464.043356" style="fill: #3f48cc; stroke: #3f48cc; stroke-linejoin: miter"/>
     <use xlink:href="#me4bb68d356" x="395.347273" y="469.838996" style="fill: #3f48cc; stroke: #3f48cc; stroke-linejoin: miter"/>
     <use xlink:href="#me4bb68d356" x="412.886136" y="466.16045" style="fill: #3f48cc; stroke: #3f48cc; stroke-linejoin: miter"/>
     <use xlink:href="#me4bb68d356" x="430.425" y="465.199475" style="fill: #3f48cc; stroke: #3f48cc; stroke-linejoin: miter"/>
     <use xlink:href="#me4bb68d356" x="447.963864" y="468.159987" style="fill: #3f48cc; stroke: #3f48cc; stroke-linejoin: miter"/>
     <use xlink:href="#me4bb68d356" x="465.502727" y="470.504395" style="fill: #3f48cc; stroke: #3f48cc; stroke-linejoin: miter"/>
     <use xlink:href="#me4bb68d356" x="483.041591" y="474.49253" style="fill: #3f48cc; stroke: #3f48cc; stroke-linejoin: miter"/>
     <use xlink:href="#me4bb68d356" x="500.580455" y="469.032068" style="fill: #3f48cc; stroke: #3f48cc; stroke-linejoin: miter"/>
     <use xlink:href="#me4bb68d356" x="518.119318" y="469.756267" style="fill: #3f48cc; stroke: #3f48cc; stroke-linejoin: miter"/>
     <use xlink:href="#me4bb68d356" x="535.658182" y="471.933321" style="fill: #3f48cc; stroke: #3f48cc; stroke-linejoin: miter"/>
     <use xlink:href="#me4bb68d356" x="553.197045" y="472.542153" style="fill: #3f48cc; stroke: #3f48cc; stroke-linejoin: miter"/>
     <use xlink:href="#me4bb68d356" x="570.735909" y="472.539291" style="fill: #3f48cc; stroke: #3f48cc; stroke-linejoin: miter"/>
     <use xlink:href="#me4bb68d356" x="588.274773" y="474.489912" style="fill: #3f48cc; stroke: #3f48cc; stroke-linejoin: miter"/>
     <use xlink:href="#me4bb68d356" x="605.813636" y="476.67713" style="fill: #3f48cc; stroke: #3f48cc; stroke-linejoin: miter"/>
     <use xlink:href="#me4bb68d356" x="623.3525" y="478.424877" style="fill: #3f48cc; stroke: #3f48cc; stroke-linejoin: miter"/>
     <use xlink:href="#me4bb68d356" x="640.891364" y="465.076907" style="fill: #3f48cc; stroke: #3f48cc; stroke-linejoin: miter"/>
     <use xlink:href="#me4bb68d356" x="658.430227" y="475.697019" style="fill: #3f48cc; stroke: #3f48cc; stroke-linejoin: miter"/>
     <use xlink:href="#me4bb68d356" x="675.969091" y="471.740708" style="fill: #3f48cc; stroke: #3f48cc; stroke-linejoin: miter"/>
     <use xlink:href="#me4bb68d356" x="693.507955" y="476.52674" style="fill: #3f48cc; stroke: #3f48cc; stroke-linejoin: miter"/>
     <use xlink:href="#me4bb68d356" x="711.046818" y="476.847947" style="fill: #3f48cc; stroke: #3f48cc; stroke-linejoin: miter"/>
     <use xlink:href="#me4bb68d356" x="728.585682" y="470.879452" style="fill: #3f48cc; stroke: #3f48cc; stroke-linejoin: miter"/>
     <use xlink:href="#me4bb68d356" x="746.124545" y="477.642431" style="fill: #3f48cc; stroke: #3f48cc; stroke-linejoin: miter"/>
     <use xlink:href="#me4bb68d356" x="763.663409" y="478.959876" style="fill: #3f48cc; stroke: #3f48cc; stroke-linejoin: miter"/>
     <use xlink:href="#me4bb68d356" x="781.202273" y="473.875207" style="fill: #3f48cc; stroke: #3f48cc; stroke-linejoin: miter"/>
    </g>
   </g>
   <g id="line2d_37">
    <path d="M 79.647727 310.637139 
L 97.186591 383.9498 
L 114.725455 394.62868 
L 132.264318 415.78505 
L 149.803182 400.436926 
L 167.342045 403.490611 
L 184.880909 423.785654 
L 202.419773 379.162484 
L 219.958636 428.359507 
L 237.4975 405.641035 
L 255.036364 432.296569 
L 272.575227 427.617872 
L 290.114091 432.770764 
L 307.652955 441.014245 
L 325.191818 428.460815 
L 342.730682 432.838435 
L 360.269545 429.932962 
L 377.808409 439.892768 
L 395.347273 441.512853 
L 412.886136 437.989162 
L 430.425 433.237121 
L 447.963864 437.955735 
L 465.502727 440.502512 
L 483.041591 436.256642 
L 500.580455 438.881892 
L 518.119318 435.486664 
L 535.658182 441.192358 
L 553.197045 445.93241 
L 570.735909 439.803543 
L 588.274773 445.584256 
L 605.813636 451.353997 
L 623.3525 426.023028 
L 640.891364 442.834591 
L 658.430227 440.548561 
L 675.969091 443.753038 
L 693.507955 446.678717 
L 711.046818 35.880124 
L 728.585682 444.57492 
L 746.124545 444.989684 
L 763.663409 443.532238 
L 781.202273 446.850599 
" clip-path="url(#p9afd1998ec)" style="fill: none; stroke: #ff0000; stroke-width: 1.5; stroke-linecap: square"/>
    <defs>
     <path id="me8bab2283e" d="M -3 3 
L 3 3 
L 3 -3 
L -3 -3 
z
" style="stroke: #ff0000; stroke-linejoin: miter"/>
    </defs>
    <g clip-path="url(#p9afd1998ec)">
     <use xlink:href="#me8bab2283e" x="79.647727" y="310.637139" style="fill: #ff0000; stroke: #ff0000; stroke-linejoin: miter"/>
     <use xlink:href="#me8bab2283e" x="97.186591" y="383.9498" style="fill: #ff0000; stroke: #ff0000; stroke-linejoin: miter"/>
     <use xlink:href="#me8bab2283e" x="114.725455" y="394.62868" style="fill: #ff0000; stroke: #ff0000; stroke-linejoin: miter"/>
     <use xlink:href="#me8bab2283e" x="132.264318" y="415.78505" style="fill: #ff0000; stroke: #ff0000; stroke-linejoin: miter"/>
     <use xlink:href="#me8bab2283e" x="149.803182" y="400.436926" style="fill: #ff0000; stroke: #ff0000; stroke-linejoin: miter"/>
     <use xlink:href="#me8bab2283e" x="167.342045" y="403.490611" style="fill: #ff0000; stroke: #ff0000; stroke-linejoin: miter"/>
     <use xlink:href="#me8bab2283e" x="184.880909" y="423.785654" style="fill: #ff0000; stroke: #ff0000; stroke-linejoin: miter"/>
     <use xlink:href="#me8bab2283e" x="202.419773" y="379.162484" style="fill: #ff0000; stroke: #ff0000; stroke-linejoin: miter"/>
     <use xlink:href="#me8bab2283e" x="219.958636" y="428.359507" style="fill: #ff0000; stroke: #ff0000; stroke-linejoin: miter"/>
     <use xlink:href="#me8bab2283e" x="237.4975" y="405.641035" style="fill: #ff0000; stroke: #ff0000; stroke-linejoin: miter"/>
     <use xlink:href="#me8bab2283e" x="255.036364" y="432.296569" style="fill: #ff0000; stroke: #ff0000; stroke-linejoin: miter"/>
     <use xlink:href="#me8bab2283e" x="272.575227" y="427.617872" style="fill: #ff0000; stroke: #ff0000; stroke-linejoin: miter"/>
     <use xlink:href="#me8bab2283e" x="290.114091" y="432.770764" style="fill: #ff0000; stroke: #ff0000; stroke-linejoin: miter"/>
     <use xlink:href="#me8bab2283e" x="307.652955" y="441.014245" style="fill: #ff0000; stroke: #ff0000; stroke-linejoin: miter"/>
     <use xlink:href="#me8bab2283e" x="325.191818" y="428.460815" style="fill: #ff0000; stroke: #ff0000; stroke-linejoin: miter"/>
     <use xlink:href="#me8bab2283e" x="342.730682" y="432.838435" style="fill: #ff0000; stroke: #ff0000; stroke-linejoin: miter"/>
     <use xlink:href="#me8bab2283e" x="360.269545" y="429.932962" style="fill: #ff0000; stroke: #ff0000; stroke-linejoin: miter"/>
     <use xlink:href="#me8bab2283e" x="377.808409" y="439.892768" style="fill: #ff0000; stroke: #ff0000; stroke-linejoin: miter"/>
     <use xlink:href="#me8bab2283e" x="395.347273" y="441.512853" style="fill: #ff0000; stroke: #ff0000; stroke-linejoin: miter"/>
     <use xlink:href="#me8bab2283e" x="412.886136" y="437.989162" style="fill: #ff0000; stroke: #ff0000; stroke-linejoin: miter"/>
     <use xlink:href="#me8bab2283e" x="430.425" y="433.237121" style="fill: #ff0000; stroke: #ff0000; stroke-linejoin: miter"/>
     <use xlink:href="#me8bab2283e" x="447.963864" y="437.955735" style="fill: #ff0000; stroke: #ff0000; stroke-linejoin: miter"/>
     <use xlink:href="#me8bab2283e" x="465.502727" y="440.502512" style="fill: #ff0000; stroke: #ff0000; stroke-linejoin: miter"/>
     <use xlink:href="#me8bab2283e" x="483.041591" y="436.256642" style="fill: #ff0000; stroke: #ff0000; stroke-linejoin: miter"/>
     <use xlink:href="#me8bab2283e" x="500.580455" y="438.881892" style="fill: #ff0000; stroke: #ff0000; stroke-linejoin: miter"/>
     <use xlink:href="#me8bab2283e" x="518.119318" y="435.486664" style="fill: #ff0000; stroke: #ff0000; stroke-linejoin: miter"/>
     <use xlink:href="#me8bab2283e" x="535.658182" y="441.192358" style="fill: #ff0000; stroke: #ff0000; stroke-linejoin: miter"/>
     <use xlink:href="#me8bab2283e" x="553.197045" y="445.93241" style="fill: #ff0000; stroke: #ff0000; stroke-linejoin: miter"/>
     <use xlink:href="#me8bab2283e" x="570.735909" y="439.803543" style="fill: #ff0000; stroke: #ff0000; stroke-linejoin: miter"/>
     <use xlink:href="#me8bab2283e" x="588.274773" y="445.584256" style="fill: #ff0000; stroke: #ff0000; stroke-linejoin: miter"/>
     <use xlink:href="#me8bab2283e" x="605.813636" y="451.353997" style="fill: #ff0000; stroke: #ff0000; stroke-linejoin: miter"/>
     <use xlink:href="#me8bab2283e" x="623.3525" y="426.023028" style="fill: #ff0000; stroke: #ff0000; stroke-linejoin: miter"/>
     <use xlink:href="#me8bab2283e" x="640.891364" y="442.834591" style="fill: #ff0000; stroke: #ff0000; stroke-linejoin: miter"/>
     <use xlink:href="#me8bab2283e" x="658.430227" y="440.548561" style="fill: #ff0000; stroke: #ff0000; stroke-linejoin: miter"/>
     <use xlink:href="#me8bab2283e" x="675.969091" y="443.753038" style="fill: #ff0000; stroke: #ff0000; stroke-linejoin: miter"/>
     <use xlink:href="#me8bab2283e" x="693.507955" y="446.678717" style="fill: #ff0000; stroke: #ff0000; stroke-linejoin: miter"/>
     <use xlink:href="#me8bab2283e" x="711.046818" y="35.880124" style="fill: #ff0000; stroke: #ff0000; stroke-linejoin: miter"/>
     <use xlink:href="#me8bab2283e" x="728.585682" y="444.57492" style="fill: #ff0000; stroke: #ff0000; stroke-linejoin: miter"/>
     <use xlink:href="#me8bab2283e" x="746.124545" y="444.989684" style="fill: #ff0000; stroke: #ff0000; stroke-linejoin: miter"/>
     <use xlink:href="#me8bab2283e" x="763.663409" y="443.532238" style="fill: #ff0000; stroke: #ff0000; stroke-linejoin: miter"/>
     <use xlink:href="#me8bab2283e" x="781.202273" y="446.850599" style="fill: #ff0000; stroke: #ff0000; stroke-linejoin: miter"/>
    </g>
   </g>
   <g id="patch_7">
    <path d="M 44.57 487.96 
L 44.57 26.88 
" style="fill: none; stroke: #000000; stroke-width: 0.8; stroke-linejoin: miter; stroke-linecap: square"/>
   </g>
   <g id="patch_8">
    <path d="M 816.28 487.96 
L 816.28 26.88 
" style="fill: none; stroke: #000000; stroke-width: 0.8; stroke-linejoin: miter; stroke-linecap: square"/>
   </g>
   <g id="patch_9">
    <path d="M 44.57 487.96 
L 816.28 487.96 
" style="fill: none; stroke: #000000; stroke-width: 0.8; stroke-linejoin: miter; stroke-linecap: square"/>
   </g>
   <g id="patch_10">
    <path d="M 44.57 26.88 
L 816.28 26.88 
" style="fill: none; stroke: #000000; stroke-width: 0.8; stroke-linejoin: miter; stroke-linecap: square"/>
   </g>
  </g>
  <g id="legend_1">
   <g id="patch_11">
    <path d="M 209.214063 553.72 
L 654.785938 553.72 
Q 656.785938 553.72 656.785938 551.72 
L 656.785938 538.041875 
Q 656.785938 536.041875 654.785938 536.041875 
L 209.214063 536.041875 
Q 207.214063 536.041875 207.214063 538.041875 
L 207.214063 551.72 
Q 207.214063 553.72 209.214063 553.72 
z
" style="fill: #ffffff; opacity: 0.8; stroke: #cccccc; stroke-linejoin: miter"/>
   </g>
   <g id="line2d_38">
    <path d="M 211.214063 544.140313 
L 221.214063 544.140313 
L 231.214063 544.140313 
" style="fill: none; stroke-dasharray: 1.5,2.475; stroke-dashoffset: 0; stroke: #ff80ff; stroke-width: 1.5"/>
    <g>
     <use xlink:href="#mbf9fb0ec10" x="221.214063" y="544.140313" style="fill: #ff80ff; stroke: #ff80ff"/>
    </g>
   </g>
   <g id="text_24">
    <!-- Training Acc -->
    <g transform="translate(239.214063 547.640313) scale(0.1 -0.1)">
     <defs>
      <path id="DejaVuSans-54" d="M -19 4666 
L 3928 4666 
L 3928 4134 
L 2272 4134 
L 2272 0 
L 1638 0 
L 1638 4134 
L -19 4134 
L -19 4666 
z
" transform="scale(0.015625)"/>
      <path id="DejaVuSans-69" d="M 603 3500 
L 1178 3500 
L 1178 0 
L 603 0 
L 603 3500 
z
M 603 4863 
L 1178 4863 
L 1178 4134 
L 603 4134 
L 603 4863 
z
" transform="scale(0.015625)"/>
      <path id="DejaVuSans-67" d="M 2906 1791 
Q 2906 2416 2648 2759 
Q 2391 3103 1925 3103 
Q 1463 3103 1205 2759 
Q 947 2416 947 1791 
Q 947 1169 1205 825 
Q 1463 481 1925 481 
Q 2391 481 2648 825 
Q 2906 1169 2906 1791 
z
M 3481 434 
Q 3481 -459 3084 -895 
Q 2688 -1331 1869 -1331 
Q 1566 -1331 1297 -1286 
Q 1028 -1241 775 -1147 
L 775 -588 
Q 1028 -725 1275 -790 
Q 1522 -856 1778 -856 
Q 2344 -856 2625 -561 
Q 2906 -266 2906 331 
L 2906 616 
Q 2728 306 2450 153 
Q 2172 0 1784 0 
Q 1141 0 747 490 
Q 353 981 353 1791 
Q 353 2603 747 3093 
Q 1141 3584 1784 3584 
Q 2172 3584 2450 3431 
Q 2728 3278 2906 2969 
L 2906 3500 
L 3481 3500 
L 3481 434 
z
" transform="scale(0.015625)"/>
     </defs>
     <use xlink:href="#DejaVuSans-54"/>
     <use xlink:href="#DejaVuSans-72" transform="translate(46.333984 0)"/>
     <use xlink:href="#DejaVuSans-61" transform="translate(87.447266 0)"/>
     <use xlink:href="#DejaVuSans-69" transform="translate(148.726562 0)"/>
     <use xlink:href="#DejaVuSans-6e" transform="translate(176.509766 0)"/>
     <use xlink:href="#DejaVuSans-69" transform="translate(239.888672 0)"/>
     <use xlink:href="#DejaVuSans-6e" transform="translate(267.671875 0)"/>
     <use xlink:href="#DejaVuSans-67" transform="translate(331.050781 0)"/>
     <use xlink:href="#DejaVuSans-20" transform="translate(394.527344 0)"/>
     <use xlink:href="#DejaVuSans-41" transform="translate(426.314453 0)"/>
     <use xlink:href="#DejaVuSans-63" transform="translate(492.972656 0)"/>
     <use xlink:href="#DejaVuSans-63" transform="translate(547.953125 0)"/>
    </g>
   </g>
   <g id="line2d_39">
    <path d="M 319.50625 544.140313 
L 329.50625 544.140313 
L 339.50625 544.140313 
" style="fill: none; stroke-dasharray: 9.6,2.4,1.5,2.4; stroke-dashoffset: 0; stroke: #46cc33; stroke-width: 1.5"/>
    <g>
     <use xlink:href="#m2a74b2bd79" x="329.50625" y="544.140313" style="fill: #46cc33; stroke: #46cc33"/>
    </g>
   </g>
   <g id="text_25">
    <!-- Validation Acc -->
    <g transform="translate(347.50625 547.640313) scale(0.1 -0.1)">
     <defs>
      <path id="DejaVuSans-56" d="M 1831 0 
L 50 4666 
L 709 4666 
L 2188 738 
L 3669 4666 
L 4325 4666 
L 2547 0 
L 1831 0 
z
" transform="scale(0.015625)"/>
      <path id="DejaVuSans-6c" d="M 603 4863 
L 1178 4863 
L 1178 0 
L 603 0 
L 603 4863 
z
" transform="scale(0.015625)"/>
     </defs>
     <use xlink:href="#DejaVuSans-56"/>
     <use xlink:href="#DejaVuSans-61" transform="translate(60.658203 0)"/>
     <use xlink:href="#DejaVuSans-6c" transform="translate(121.9375 0)"/>
     <use xlink:href="#DejaVuSans-69" transform="translate(149.720703 0)"/>
     <use xlink:href="#DejaVuSans-64" transform="translate(177.503906 0)"/>
     <use xlink:href="#DejaVuSans-61" transform="translate(240.980469 0)"/>
     <use xlink:href="#DejaVuSans-74" transform="translate(302.259766 0)"/>
     <use xlink:href="#DejaVuSans-69" transform="translate(341.46875 0)"/>
     <use xlink:href="#DejaVuSans-6f" transform="translate(369.251953 0)"/>
     <use xlink:href="#DejaVuSans-6e" transform="translate(430.433594 0)"/>
     <use xlink:href="#DejaVuSans-20" transform="translate(493.8125 0)"/>
     <use xlink:href="#DejaVuSans-41" transform="translate(525.599609 0)"/>
     <use xlink:href="#DejaVuSans-63" transform="translate(592.257812 0)"/>
     <use xlink:href="#DejaVuSans-63" transform="translate(647.238281 0)"/>
    </g>
   </g>
   <g id="line2d_40">
    <path d="M 437.728125 544.140313 
L 447.728125 544.140313 
L 457.728125 544.140313 
" style="fill: none; stroke-dasharray: 5.55,2.4; stroke-dashoffset: 0; stroke: #3f48cc; stroke-width: 1.5"/>
    <g>
     <use xlink:href="#me4bb68d356" x="447.728125" y="544.140313" style="fill: #3f48cc; stroke: #3f48cc; stroke-linejoin: miter"/>
    </g>
   </g>
   <g id="text_26">
    <!-- Training Loss -->
    <g transform="translate(465.728125 547.640313) scale(0.1 -0.1)">
     <use xlink:href="#DejaVuSans-54"/>
     <use xlink:href="#DejaVuSans-72" transform="translate(46.333984 0)"/>
     <use xlink:href="#DejaVuSans-61" transform="translate(87.447266 0)"/>
     <use xlink:href="#DejaVuSans-69" transform="translate(148.726562 0)"/>
     <use xlink:href="#DejaVuSans-6e" transform="translate(176.509766 0)"/>
     <use xlink:href="#DejaVuSans-69" transform="translate(239.888672 0)"/>
     <use xlink:href="#DejaVuSans-6e" transform="translate(267.671875 0)"/>
     <use xlink:href="#DejaVuSans-67" transform="translate(331.050781 0)"/>
     <use xlink:href="#DejaVuSans-20" transform="translate(394.527344 0)"/>
     <use xlink:href="#DejaVuSans-4c" transform="translate(426.314453 0)"/>
     <use xlink:href="#DejaVuSans-6f" transform="translate(480.277344 0)"/>
     <use xlink:href="#DejaVuSans-73" transform="translate(541.458984 0)"/>
     <use xlink:href="#DejaVuSans-73" transform="translate(593.558594 0)"/>
    </g>
   </g>
   <g id="line2d_41">
    <path d="M 550.292187 544.140313 
L 560.292187 544.140313 
L 570.292187 544.140313 
" style="fill: none; stroke: #ff0000; stroke-width: 1.5; stroke-linecap: square"/>
    <g>
     <use xlink:href="#me8bab2283e" x="560.292187" y="544.140313" style="fill: #ff0000; stroke: #ff0000; stroke-linejoin: miter"/>
    </g>
   </g>
   <g id="text_27">
    <!-- Validation Loss -->
    <g transform="translate(578.292187 547.640313) scale(0.1 -0.1)">
     <use xlink:href="#DejaVuSans-56"/>
     <use xlink:href="#DejaVuSans-61" transform="translate(60.658203 0)"/>
     <use xlink:href="#DejaVuSans-6c" transform="translate(121.9375 0)"/>
     <use xlink:href="#DejaVuSans-69" transform="translate(149.720703 0)"/>
     <use xlink:href="#DejaVuSans-64" transform="translate(177.503906 0)"/>
     <use xlink:href="#DejaVuSans-61" transform="translate(240.980469 0)"/>
     <use xlink:href="#DejaVuSans-74" transform="translate(302.259766 0)"/>
     <use xlink:href="#DejaVuSans-69" transform="translate(341.46875 0)"/>
     <use xlink:href="#DejaVuSans-6f" transform="translate(369.251953 0)"/>
     <use xlink:href="#DejaVuSans-6e" transform="translate(430.433594 0)"/>
     <use xlink:href="#DejaVuSans-20" transform="translate(493.8125 0)"/>
     <use xlink:href="#DejaVuSans-4c" transform="translate(525.599609 0)"/>
     <use xlink:href="#DejaVuSans-6f" transform="translate(579.5625 0)"/>
     <use xlink:href="#DejaVuSans-73" transform="translate(640.744141 0)"/>
     <use xlink:href="#DejaVuSans-73" transform="translate(692.84375 0)"/>
    </g>
   </g>
  </g>
 </g>
 <defs>
  <clipPath id="p9afd1998ec">
   <rect x="44.57" y="26.88" width="771.71" height="461.08"/>
  </clipPath>
 </defs>
</svg>
